<?xml version="1.0" encoding="utf-8" standalone="no"?>
<!DOCTYPE svg PUBLIC "-//W3C//DTD SVG 1.1//EN"
  "http://www.w3.org/Graphics/SVG/1.1/DTD/svg11.dtd">
<svg xmlns:xlink="http://www.w3.org/1999/xlink" width="864pt" height="360pt" viewBox="0 0 864 360" xmlns="http://www.w3.org/2000/svg" version="1.1">
 <metadata>
  <rdf:RDF xmlns:dc="http://purl.org/dc/elements/1.1/" xmlns:cc="http://creativecommons.org/ns#" xmlns:rdf="http://www.w3.org/1999/02/22-rdf-syntax-ns#">
   <cc:Work>
    <dc:type rdf:resource="http://purl.org/dc/dcmitype/StillImage"/>
    <dc:date>2024-05-28T17:41:02.946210</dc:date>
    <dc:format>image/svg+xml</dc:format>
    <dc:creator>
     <cc:Agent>
      <dc:title>Matplotlib v3.6.3, https://matplotlib.org/</dc:title>
     </cc:Agent>
    </dc:creator>
   </cc:Work>
  </rdf:RDF>
 </metadata>
 <defs>
  <style type="text/css">*{stroke-linejoin: round; stroke-linecap: butt}</style>
 </defs>
 <g id="figure_1">
  <g id="patch_1">
   <path d="M 0 360 
L 864 360 
L 864 0 
L 0 0 
z
" style="fill: #ffffff"/>
  </g>
  <g id="axes_1">
   <g id="patch_2">
    <path d="M 35.585996 272.645444 
L 302.268584 272.645444 
L 302.268584 43.504898 
L 35.585996 43.504898 
z
" style="fill: #ffffff"/>
   </g>
   <g id="PathCollection_1"/>
   <g id="PathCollection_2"/>
   <g id="PathCollection_3"/>
   <g id="PathCollection_4"/>
   <g id="PathCollection_5"/>
   <g id="PathCollection_6"/>
   <g id="PathCollection_7"/>
   <g id="PathCollection_8"/>
   <g id="PathCollection_9"/>
   <g id="PathCollection_10"/>
   <g id="PathCollection_11"/>
   <g id="PathCollection_12">
    <path d="M 302.268584 272.645444 
L 302.268584 260.543702 
L 270.162864 272.645444 
z
" clip-path="url(#pd5b307c842)" style="fill: #d5446d"/>
   </g>
   <g id="PathCollection_13">
    <path d="M 102.256643 272.645444 
L 168.92729 272.645444 
L 235.597937 272.645444 
L 270.162864 272.645444 
L 302.268584 260.543702 
L 302.268584 218.74858 
L 281.53933 215.360308 
L 235.597937 212.288264 
L 168.92729 210.463778 
L 128.907586 215.360308 
L 102.256643 236.577032 
L 35.585996 264.881998 
L 35.585996 272.645444 
z
" clip-path="url(#pd5b307c842)" style="fill: #e75263"/>
   </g>
   <g id="PathCollection_14">
    <path d="M 102.256643 236.577032 
L 128.907586 215.360308 
L 168.92729 210.463778 
L 235.597937 212.288264 
L 281.53933 215.360308 
L 302.268584 218.74858 
L 302.268584 215.360308 
L 302.268584 198.64943 
L 235.597937 195.189915 
L 168.92729 184.235104 
L 102.256643 170.678272 
L 80.8496 158.075171 
L 35.585996 138.776669 
L 35.585996 158.075171 
L 35.585996 215.360308 
L 35.585996 264.881998 
z
" clip-path="url(#pd5b307c842)" style="fill: #f2645c"/>
   </g>
   <g id="PathCollection_15">
    <path d="M 102.256643 170.678272 
L 168.92729 184.235104 
L 235.597937 195.189915 
L 302.268584 198.64943 
L 302.268584 180.46431 
L 235.597937 178.091565 
L 169.076218 158.075171 
L 168.92729 157.984955 
L 102.256643 134.324955 
L 35.585996 101.824271 
L 35.585996 138.776669 
L 80.8496 158.075171 
z
" clip-path="url(#pd5b307c842)" style="fill: #f97b5d"/>
   </g>
   <g id="PathCollection_16">
    <path d="M 235.597937 178.091565 
L 302.268584 180.46431 
L 302.268584 162.279191 
L 235.597937 160.993216 
L 225.900218 158.075171 
L 168.92729 123.562498 
L 102.256643 102.784366 
L 98.184527 100.790035 
L 66.567174 43.504898 
L 35.585996 43.504898 
L 35.585996 100.790035 
L 35.585996 101.824271 
L 102.256643 134.324955 
L 168.92729 157.984955 
L 169.076218 158.075171 
z
" clip-path="url(#pd5b307c842)" style="fill: #fd9467"/>
   </g>
   <g id="PathCollection_17">
    <path d="M 235.597937 160.993216 
L 302.268584 162.279191 
L 302.268584 158.075171 
L 302.268584 128.47734 
L 235.597937 113.270662 
L 208.551026 100.790035 
L 201.568232 43.504898 
L 168.92729 43.504898 
L 102.256643 43.504898 
L 66.567174 43.504898 
L 98.184527 100.790035 
L 102.256643 102.784366 
L 168.92729 123.562498 
L 225.900218 158.075171 
z
" clip-path="url(#pd5b307c842)" style="fill: #feac76"/>
   </g>
   <g id="PathCollection_18">
    <path d="M 235.597937 113.270662 
L 302.268584 128.47734 
L 302.268584 100.790035 
L 302.268584 43.504898 
L 235.597937 43.504898 
L 201.568232 43.504898 
L 208.551026 100.790035 
z
" clip-path="url(#pd5b307c842)" style="fill: #fec488"/>
   </g>
   <g id="PathCollection_19"/>
   <g id="PathCollection_20"/>
   <g id="matplotlib.axis_1">
    <g id="xtick_1">
     <g id="line2d_1">
      <defs>
       <path id="m37234db41c" d="M 0 0 
L 0 3.5 
" style="stroke: #000000; stroke-width: 0.8"/>
      </defs>
      <g>
       <use xlink:href="#m37234db41c" x="62.254255" y="272.645444" style="stroke: #000000; stroke-width: 0.8"/>
      </g>
     </g>
     <g id="text_1">
      <!-- $\mathdefault{600}$ -->
      <g transform="translate(54.782252 286.563943) scale(0.1 -0.1)">
       <defs>
        <path id="CMR17-36" d="M 678 2198 
C 678 3712 1395 4076 1811 4076 
C 1946 4076 2272 4049 2400 3782 
C 2298 3782 2106 3782 2106 3558 
C 2106 3385 2246 3328 2336 3328 
C 2394 3328 2566 3353 2566 3571 
C 2566 3987 2246 4224 1805 4224 
C 1043 4224 243 3411 243 2011 
C 243 257 966 -128 1478 -128 
C 2099 -128 2688 431 2688 1295 
C 2688 2101 2170 2688 1517 2688 
C 1126 2688 838 2430 678 1979 
L 678 2198 
z
M 1478 25 
C 691 25 691 1212 691 1450 
C 691 1914 909 2585 1504 2585 
C 1613 2585 1926 2585 2138 2140 
C 2253 1889 2253 1624 2253 1302 
C 2253 954 2253 696 2118 438 
C 1978 173 1773 25 1478 25 
z
" transform="scale(0.015625)"/>
        <path id="CMR17-30" d="M 2688 2038 
C 2688 2430 2682 3099 2413 3613 
C 2176 4063 1798 4224 1466 4224 
C 1158 4224 768 4082 525 3620 
C 269 3137 243 2539 243 2038 
C 243 1671 250 1112 448 623 
C 723 -39 1216 -128 1466 -128 
C 1760 -128 2208 -7 2470 604 
C 2662 1048 2688 1568 2688 2038 
z
M 1466 -26 
C 1056 -26 813 328 723 816 
C 653 1196 653 1749 653 2109 
C 653 2604 653 3015 736 3407 
C 858 3954 1216 4121 1466 4121 
C 1728 4121 2067 3947 2189 3420 
C 2272 3054 2278 2623 2278 2109 
C 2278 1691 2278 1176 2202 797 
C 2067 96 1690 -26 1466 -26 
z
" transform="scale(0.015625)"/>
       </defs>
       <use xlink:href="#CMR17-36" transform="scale(0.996264)"/>
       <use xlink:href="#CMR17-30" transform="translate(45.690477 0) scale(0.996264)"/>
       <use xlink:href="#CMR17-30" transform="translate(91.380954 0) scale(0.996264)"/>
      </g>
     </g>
    </g>
    <g id="xtick_2">
     <g id="line2d_2">
      <g>
       <use xlink:href="#m37234db41c" x="115.590772" y="272.645444" style="stroke: #000000; stroke-width: 0.8"/>
      </g>
     </g>
     <g id="text_2">
      <!-- $\mathdefault{800}$ -->
      <g transform="translate(108.118769 286.563943) scale(0.1 -0.1)">
       <defs>
        <path id="CMR17-38" d="M 1741 2289 
C 2144 2494 2554 2803 2554 3298 
C 2554 3884 1990 4224 1472 4224 
C 890 4224 378 3800 378 3215 
C 378 3054 416 2777 666 2533 
C 730 2469 998 2276 1171 2154 
C 883 2006 211 1652 211 945 
C 211 282 838 -128 1459 -128 
C 2144 -128 2720 366 2720 1022 
C 2720 1607 2330 1877 2074 2051 
L 1741 2289 
z
M 902 2855 
C 851 2887 595 3086 595 3388 
C 595 3781 998 4076 1459 4076 
C 1965 4076 2336 3716 2336 3298 
C 2336 2700 1670 2359 1638 2359 
C 1632 2359 1626 2359 1574 2398 
L 902 2855 
z
M 2080 1536 
C 2176 1466 2483 1253 2483 861 
C 2483 385 2010 25 1472 25 
C 890 25 448 443 448 951 
C 448 1459 838 1884 1280 2083 
L 2080 1536 
z
" transform="scale(0.015625)"/>
       </defs>
       <use xlink:href="#CMR17-38" transform="scale(0.996264)"/>
       <use xlink:href="#CMR17-30" transform="translate(45.690477 0) scale(0.996264)"/>
       <use xlink:href="#CMR17-30" transform="translate(91.380954 0) scale(0.996264)"/>
      </g>
     </g>
    </g>
    <g id="xtick_3">
     <g id="line2d_3">
      <g>
       <use xlink:href="#m37234db41c" x="168.92729" y="272.645444" style="stroke: #000000; stroke-width: 0.8"/>
      </g>
     </g>
     <g id="text_3">
      <!-- $\mathdefault{1000}$ -->
      <g transform="translate(158.964619 286.563943) scale(0.1 -0.1)">
       <defs>
        <path id="CMR17-31" d="M 1702 4083 
C 1702 4217 1696 4224 1606 4224 
C 1357 3927 979 3833 621 3820 
C 602 3820 570 3820 563 3808 
C 557 3795 557 3782 557 3648 
C 755 3648 1088 3686 1344 3839 
L 1344 467 
C 1344 243 1331 166 781 166 
L 589 166 
L 589 0 
C 896 6 1216 12 1523 12 
C 1830 12 2150 6 2458 0 
L 2458 166 
L 2266 166 
C 1715 166 1702 236 1702 467 
L 1702 4083 
z
" transform="scale(0.015625)"/>
       </defs>
       <use xlink:href="#CMR17-31" transform="scale(0.996264)"/>
       <use xlink:href="#CMR17-30" transform="translate(45.690477 0) scale(0.996264)"/>
       <use xlink:href="#CMR17-30" transform="translate(91.380954 0) scale(0.996264)"/>
       <use xlink:href="#CMR17-30" transform="translate(137.071431 0) scale(0.996264)"/>
      </g>
     </g>
    </g>
    <g id="xtick_4">
     <g id="line2d_4">
      <g>
       <use xlink:href="#m37234db41c" x="222.263807" y="272.645444" style="stroke: #000000; stroke-width: 0.8"/>
      </g>
     </g>
     <g id="text_4">
      <!-- $\mathdefault{1200}$ -->
      <g transform="translate(212.301137 286.563943) scale(0.1 -0.1)">
       <defs>
        <path id="CMR17-32" d="M 2669 990 
L 2554 990 
C 2490 537 2438 460 2413 422 
C 2381 371 1920 371 1830 371 
L 602 371 
C 832 620 1280 1073 1824 1596 
C 2214 1966 2669 2400 2669 3033 
C 2669 3788 2067 4224 1395 4224 
C 691 4224 262 3603 262 3027 
C 262 2777 448 2745 525 2745 
C 589 2745 781 2783 781 3007 
C 781 3206 614 3264 525 3264 
C 486 3264 448 3257 422 3244 
C 544 3788 915 4057 1306 4057 
C 1862 4057 2227 3616 2227 3033 
C 2227 2477 1901 1998 1536 1583 
L 262 147 
L 262 0 
L 2515 0 
L 2669 990 
z
" transform="scale(0.015625)"/>
       </defs>
       <use xlink:href="#CMR17-31" transform="scale(0.996264)"/>
       <use xlink:href="#CMR17-32" transform="translate(45.690477 0) scale(0.996264)"/>
       <use xlink:href="#CMR17-30" transform="translate(91.380954 0) scale(0.996264)"/>
       <use xlink:href="#CMR17-30" transform="translate(137.071431 0) scale(0.996264)"/>
      </g>
     </g>
    </g>
    <g id="xtick_5">
     <g id="line2d_5">
      <g>
       <use xlink:href="#m37234db41c" x="275.600325" y="272.645444" style="stroke: #000000; stroke-width: 0.8"/>
      </g>
     </g>
     <g id="text_5">
      <!-- $\mathdefault{1400}$ -->
      <g transform="translate(265.637655 286.563943) scale(0.1 -0.1)">
       <defs>
        <path id="CMR17-34" d="M 2150 4147 
C 2150 4281 2144 4288 2029 4288 
L 128 1254 
L 128 1088 
L 1779 1088 
L 1779 460 
C 1779 230 1766 166 1318 166 
L 1197 166 
L 1197 0 
C 1402 12 1747 12 1965 12 
C 2182 12 2528 12 2733 0 
L 2733 166 
L 2611 166 
C 2163 166 2150 230 2150 460 
L 2150 1088 
L 2803 1088 
L 2803 1254 
L 2150 1254 
L 2150 4147 
z
M 1798 3723 
L 1798 1254 
L 256 1254 
L 1798 3723 
z
" transform="scale(0.015625)"/>
       </defs>
       <use xlink:href="#CMR17-31" transform="scale(0.996264)"/>
       <use xlink:href="#CMR17-34" transform="translate(45.690477 0) scale(0.996264)"/>
       <use xlink:href="#CMR17-30" transform="translate(91.380954 0) scale(0.996264)"/>
       <use xlink:href="#CMR17-30" transform="translate(137.071431 0) scale(0.996264)"/>
      </g>
     </g>
    </g>
    <g id="text_6">
     <!-- Stiffness $k$ -->
     <g transform="translate(147.404964 299.419619) scale(0.1 -0.1)">
      <defs>
       <path id="CMSS17-53" d="M 2797 4230 
C 2515 4396 2208 4544 1690 4544 
C 864 4544 333 3934 333 3309 
C 333 3064 403 2787 653 2504 
C 902 2220 1184 2143 1542 2053 
C 1690 2014 1939 1943 1984 1924 
C 2342 1782 2515 1454 2515 1144 
C 2515 738 2202 307 1645 307 
C 1453 307 890 339 358 829 
L 269 320 
C 794 -64 1363 -128 1651 -128 
C 2438 -128 3002 494 3002 1202 
C 3002 1460 2925 1789 2656 2092 
C 2394 2381 2163 2446 1638 2588 
C 1338 2665 1146 2717 986 2916 
C 877 3058 819 3193 819 3367 
C 819 3728 1126 4121 1690 4121 
C 1971 4121 2336 4063 2707 3715 
L 2797 4230 
z
" transform="scale(0.015625)"/>
       <path id="CMSS17-74" d="M 1069 2380 
L 1901 2380 
L 1901 2752 
L 1069 2752 
L 1069 3520 
L 614 3520 
L 614 2752 
L 109 2752 
L 109 2380 
L 602 2380 
L 602 751 
C 602 384 685 -64 1107 -64 
C 1427 -64 1722 25 2003 172 
L 1901 551 
C 1747 416 1562 339 1363 339 
C 1082 339 1069 699 1069 860 
L 1069 2380 
z
" transform="scale(0.015625)"/>
       <path id="CMSS17-69" d="M 979 4224 
L 442 4224 
L 442 3686 
L 979 3686 
L 979 4224 
z
M 947 2752 
L 474 2752 
L 474 0 
L 947 0 
L 947 2752 
z
" transform="scale(0.015625)"/>
       <path id="CMSS17-b" d="M 1075 2380 
L 1734 2380 
L 1734 2752 
L 1062 2752 
L 1062 3563 
C 1062 4000 1395 4089 1613 4089 
C 1837 4089 2022 4032 2093 4007 
L 2093 4428 
C 2022 4441 1830 4480 1619 4480 
C 1030 4480 602 4000 602 3366 
L 602 2752 
L 160 2752 
L 160 2380 
L 602 2380 
L 602 0 
L 1075 0 
L 1075 2380 
z
M 2739 2380 
L 3398 2380 
L 3398 2752 
L 2726 2752 
L 2726 3563 
C 2726 4000 3059 4089 3277 4089 
C 3501 4089 3686 4032 3757 4007 
L 3757 4428 
C 3686 4441 3494 4480 3283 4480 
C 2694 4480 2266 4000 2266 3366 
L 2266 0 
L 2739 0 
L 2739 2380 
z
" transform="scale(0.015625)"/>
       <path id="CMSS17-6e" d="M 2618 1878 
C 2618 2283 2522 2816 1798 2816 
C 1389 2816 1120 2604 941 2386 
L 941 2783 
L 474 2783 
L 474 0 
L 960 0 
L 960 1556 
C 960 1962 1114 2425 1549 2425 
C 2112 2425 2131 2045 2131 1826 
L 2131 0 
L 2618 0 
L 2618 1878 
z
" transform="scale(0.015625)"/>
       <path id="CMSS17-65" d="M 2502 1375 
C 2502 1587 2490 2001 2285 2347 
C 2061 2713 1696 2816 1421 2816 
C 755 2816 192 2184 192 1363 
C 192 579 774 -64 1510 -64 
C 1798 -64 2150 19 2470 249 
C 2470 275 2458 414 2451 421 
C 2451 433 2432 629 2432 655 
C 2125 408 1773 326 1517 326 
C 1107 326 666 667 646 1375 
L 2502 1375 
z
M 698 1728 
C 781 2086 1062 2425 1421 2425 
C 1517 2425 1965 2412 2080 1728 
L 698 1728 
z
" transform="scale(0.015625)"/>
       <path id="CMSS17-73" d="M 2061 2623 
C 1683 2803 1389 2816 1197 2816 
C 742 2816 198 2655 198 2009 
C 198 1363 902 1222 1094 1183 
C 1389 1126 1715 1062 1715 742 
C 1715 339 1254 339 1171 339 
C 915 339 563 409 243 639 
L 166 211 
C 531 0 883 -64 1178 -64 
C 1965 -64 2163 416 2163 780 
C 2163 1094 1984 1305 1862 1401 
C 1651 1567 1574 1587 1050 1695 
C 960 1708 646 1779 646 2067 
C 646 2431 1050 2431 1139 2431 
C 1555 2431 1811 2303 1984 2207 
L 2061 2623 
z
" transform="scale(0.015625)"/>
       <path id="CMMI12-6b" d="M 1798 4255 
C 1805 4281 1818 4319 1818 4351 
C 1818 4416 1754 4416 1741 4416 
C 1734 4416 1504 4396 1389 4383 
C 1280 4377 1184 4364 1069 4358 
C 915 4345 870 4339 870 4223 
C 870 4159 934 4159 998 4159 
C 1325 4159 1325 4103 1325 4040 
C 1325 4014 1325 4002 1293 3888 
L 378 250 
C 352 153 352 141 352 102 
C 352 -39 461 -64 525 -64 
C 704 -64 742 76 794 275 
L 1094 1476 
C 1555 1425 1830 1232 1830 924 
C 1830 885 1830 860 1811 763 
C 1786 667 1786 590 1786 558 
C 1786 185 2029 -64 2355 -64 
C 2650 -64 2803 205 2854 295 
C 2989 532 3072 892 3072 917 
C 3072 949 3046 975 3008 975 
C 2950 975 2944 949 2918 847 
C 2829 513 2694 64 2368 64 
C 2240 64 2157 128 2157 372 
C 2157 494 2182 635 2208 731 
C 2234 847 2234 853 2234 930 
C 2234 1309 1894 1521 1306 1598 
C 1536 1739 1766 1989 1856 2086 
C 2221 2495 2470 2687 2765 2687 
C 2912 2687 2950 2655 2995 2624 
C 2758 2598 2669 2431 2669 2303 
C 2669 2150 2790 2099 2880 2099 
C 3053 2099 3206 2246 3206 2451 
C 3206 2634 3059 2816 2771 2816 
C 2419 2816 2131 2579 1677 2067 
C 1613 1989 1376 1746 1139 1656 
L 1798 4255 
z
" transform="scale(0.015625)"/>
      </defs>
      <use xlink:href="#CMSS17-53" transform="scale(0.996264)"/>
      <use xlink:href="#CMSS17-74" transform="translate(52.048516 0) scale(0.996264)"/>
      <use xlink:href="#CMSS17-69" transform="translate(85.880083 0) scale(0.996264)"/>
      <use xlink:href="#CMSS17-b" transform="translate(108.060806 0) scale(0.996264)"/>
      <use xlink:href="#CMSS17-6e" transform="translate(162.711776 0) scale(0.996264)"/>
      <use xlink:href="#CMSS17-65" transform="translate(210.916719 0) scale(0.996264)"/>
      <use xlink:href="#CMSS17-73" transform="translate(252.555541 0) scale(0.996264)"/>
      <use xlink:href="#CMSS17-73" transform="translate(288.469083 0) scale(0.996264)"/>
      <use xlink:href="#CMMI12-6b" transform="translate(355.611738 0) scale(0.996264)"/>
     </g>
    </g>
   </g>
   <g id="matplotlib.axis_2">
    <g id="ytick_1">
     <g id="line2d_6">
      <defs>
       <path id="m2d2416a4b5" d="M 0 0 
L -3.5 0 
" style="stroke: #000000; stroke-width: 0.8"/>
      </defs>
      <g>
       <use xlink:href="#m2d2416a4b5" x="35.585996" y="272.645444" style="stroke: #000000; stroke-width: 0.8"/>
      </g>
     </g>
     <g id="text_7">
      <!-- $\mathdefault{0.1}$ -->
      <g transform="translate(15.855917 276.104693) scale(0.1 -0.1)">
       <defs>
        <path id="CMMI12-3a" d="M 1178 307 
C 1178 492 1024 620 870 620 
C 685 620 557 467 557 313 
C 557 128 710 0 864 0 
C 1050 0 1178 153 1178 307 
z
" transform="scale(0.015625)"/>
       </defs>
       <use xlink:href="#CMR17-30" transform="scale(0.996264)"/>
       <use xlink:href="#CMMI12-3a" transform="translate(45.690477 0) scale(0.996264)"/>
       <use xlink:href="#CMR17-31" transform="translate(72.787654 0) scale(0.996264)"/>
      </g>
     </g>
    </g>
    <g id="ytick_2">
     <g id="line2d_7">
      <g>
       <use xlink:href="#m2d2416a4b5" x="35.585996" y="247.185383" style="stroke: #000000; stroke-width: 0.8"/>
      </g>
     </g>
     <g id="text_8">
      <!-- $\mathdefault{0.2}$ -->
      <g transform="translate(15.855917 250.644633) scale(0.1 -0.1)">
       <use xlink:href="#CMR17-30" transform="scale(0.996264)"/>
       <use xlink:href="#CMMI12-3a" transform="translate(45.690477 0) scale(0.996264)"/>
       <use xlink:href="#CMR17-32" transform="translate(72.787654 0) scale(0.996264)"/>
      </g>
     </g>
    </g>
    <g id="ytick_3">
     <g id="line2d_8">
      <g>
       <use xlink:href="#m2d2416a4b5" x="35.585996" y="221.725323" style="stroke: #000000; stroke-width: 0.8"/>
      </g>
     </g>
     <g id="text_9">
      <!-- $\mathdefault{0.3}$ -->
      <g transform="translate(15.855917 225.184572) scale(0.1 -0.1)">
       <defs>
        <path id="CMR17-33" d="M 1414 2176 
C 1984 2176 2234 1673 2234 1094 
C 2234 322 1824 25 1453 25 
C 1114 25 563 193 390 691 
C 422 678 454 678 486 678 
C 640 678 755 780 755 947 
C 755 1132 614 1216 486 1216 
C 378 1216 211 1164 211 927 
C 211 335 787 -128 1466 -128 
C 2176 -128 2720 432 2720 1087 
C 2720 1718 2208 2176 1600 2246 
C 2086 2347 2554 2776 2554 3353 
C 2554 3856 2048 4224 1472 4224 
C 890 4224 378 3862 378 3347 
C 378 3123 544 3084 627 3084 
C 762 3084 877 3167 877 3334 
C 877 3500 762 3584 627 3584 
C 602 3584 570 3584 544 3571 
C 730 3999 1235 4076 1459 4076 
C 1683 4076 2106 3966 2106 3347 
C 2106 3167 2080 2851 1862 2574 
C 1670 2329 1453 2316 1242 2297 
C 1210 2297 1062 2284 1037 2284 
C 992 2278 966 2272 966 2227 
C 966 2182 973 2176 1101 2176 
L 1414 2176 
z
" transform="scale(0.015625)"/>
       </defs>
       <use xlink:href="#CMR17-30" transform="scale(0.996264)"/>
       <use xlink:href="#CMMI12-3a" transform="translate(45.690477 0) scale(0.996264)"/>
       <use xlink:href="#CMR17-33" transform="translate(72.787654 0) scale(0.996264)"/>
      </g>
     </g>
    </g>
    <g id="ytick_4">
     <g id="line2d_9">
      <g>
       <use xlink:href="#m2d2416a4b5" x="35.585996" y="196.265262" style="stroke: #000000; stroke-width: 0.8"/>
      </g>
     </g>
     <g id="text_10">
      <!-- $\mathdefault{0.4}$ -->
      <g transform="translate(15.855917 199.724511) scale(0.1 -0.1)">
       <use xlink:href="#CMR17-30" transform="scale(0.996264)"/>
       <use xlink:href="#CMMI12-3a" transform="translate(45.690477 0) scale(0.996264)"/>
       <use xlink:href="#CMR17-34" transform="translate(72.787654 0) scale(0.996264)"/>
      </g>
     </g>
    </g>
    <g id="ytick_5">
     <g id="line2d_10">
      <g>
       <use xlink:href="#m2d2416a4b5" x="35.585996" y="170.805201" style="stroke: #000000; stroke-width: 0.8"/>
      </g>
     </g>
     <g id="text_11">
      <!-- $\mathdefault{0.5}$ -->
      <g transform="translate(15.855917 174.264451) scale(0.1 -0.1)">
       <defs>
        <path id="CMR17-35" d="M 730 3750 
C 794 3724 1056 3641 1325 3641 
C 1920 3641 2246 3961 2432 4140 
C 2432 4191 2432 4224 2394 4224 
C 2387 4224 2374 4224 2323 4198 
C 2099 4102 1837 4032 1517 4032 
C 1325 4032 1037 4055 723 4191 
C 653 4224 640 4224 634 4224 
C 602 4224 595 4217 595 4090 
L 595 2231 
C 595 2113 595 2080 659 2080 
C 691 2080 704 2093 736 2139 
C 941 2435 1222 2560 1542 2560 
C 1766 2560 2246 2415 2246 1293 
C 2246 1087 2246 716 2054 422 
C 1894 159 1645 25 1370 25 
C 947 25 518 319 403 812 
C 429 806 480 793 506 793 
C 589 793 749 838 749 1036 
C 749 1209 627 1280 506 1280 
C 358 1280 262 1190 262 1011 
C 262 454 704 -128 1382 -128 
C 2042 -128 2669 441 2669 1267 
C 2669 2054 2170 2662 1549 2662 
C 1222 2662 947 2540 730 2304 
L 730 3750 
z
" transform="scale(0.015625)"/>
       </defs>
       <use xlink:href="#CMR17-30" transform="scale(0.996264)"/>
       <use xlink:href="#CMMI12-3a" transform="translate(45.690477 0) scale(0.996264)"/>
       <use xlink:href="#CMR17-35" transform="translate(72.787654 0) scale(0.996264)"/>
      </g>
     </g>
    </g>
    <g id="ytick_6">
     <g id="line2d_11">
      <g>
       <use xlink:href="#m2d2416a4b5" x="35.585996" y="145.345141" style="stroke: #000000; stroke-width: 0.8"/>
      </g>
     </g>
     <g id="text_12">
      <!-- $\mathdefault{0.6}$ -->
      <g transform="translate(15.855917 148.80439) scale(0.1 -0.1)">
       <use xlink:href="#CMR17-30" transform="scale(0.996264)"/>
       <use xlink:href="#CMMI12-3a" transform="translate(45.690477 0) scale(0.996264)"/>
       <use xlink:href="#CMR17-36" transform="translate(72.787654 0) scale(0.996264)"/>
      </g>
     </g>
    </g>
    <g id="ytick_7">
     <g id="line2d_12">
      <g>
       <use xlink:href="#m2d2416a4b5" x="35.585996" y="119.88508" style="stroke: #000000; stroke-width: 0.8"/>
      </g>
     </g>
     <g id="text_13">
      <!-- $\mathdefault{0.7}$ -->
      <g transform="translate(15.855917 123.344329) scale(0.1 -0.1)">
       <defs>
        <path id="CMR17-37" d="M 2886 3955 
L 2886 4096 
L 1382 4096 
C 634 4096 621 4166 595 4288 
L 480 4288 
L 294 3104 
L 410 3104 
C 429 3226 474 3552 550 3673 
C 589 3724 1062 3724 1171 3724 
L 2579 3724 
L 1869 2670 
C 1395 1961 1069 1003 1069 166 
C 1069 89 1069 -128 1299 -128 
C 1530 -128 1530 89 1530 172 
L 1530 466 
C 1530 1514 1709 2204 2003 2644 
L 2886 3955 
z
" transform="scale(0.015625)"/>
       </defs>
       <use xlink:href="#CMR17-30" transform="scale(0.996264)"/>
       <use xlink:href="#CMMI12-3a" transform="translate(45.690477 0) scale(0.996264)"/>
       <use xlink:href="#CMR17-37" transform="translate(72.787654 0) scale(0.996264)"/>
      </g>
     </g>
    </g>
    <g id="ytick_8">
     <g id="line2d_13">
      <g>
       <use xlink:href="#m2d2416a4b5" x="35.585996" y="94.425019" style="stroke: #000000; stroke-width: 0.8"/>
      </g>
     </g>
     <g id="text_14">
      <!-- $\mathdefault{0.8}$ -->
      <g transform="translate(15.855917 97.884269) scale(0.1 -0.1)">
       <use xlink:href="#CMR17-30" transform="scale(0.996264)"/>
       <use xlink:href="#CMMI12-3a" transform="translate(45.690477 0) scale(0.996264)"/>
       <use xlink:href="#CMR17-38" transform="translate(72.787654 0) scale(0.996264)"/>
      </g>
     </g>
    </g>
    <g id="ytick_9">
     <g id="line2d_14">
      <g>
       <use xlink:href="#m2d2416a4b5" x="35.585996" y="68.964959" style="stroke: #000000; stroke-width: 0.8"/>
      </g>
     </g>
     <g id="text_15">
      <!-- $\mathdefault{0.9}$ -->
      <g transform="translate(15.855917 72.424208) scale(0.1 -0.1)">
       <defs>
        <path id="CMR17-39" d="M 2253 1871 
C 2253 448 1670 25 1190 25 
C 1043 25 685 43 538 281 
C 704 256 826 345 826 505 
C 826 678 685 736 595 736 
C 538 736 365 710 365 492 
C 365 68 742 -128 1203 -128 
C 1939 -128 2688 665 2688 2090 
C 2688 3857 1971 4224 1485 4224 
C 851 4224 243 3664 243 2800 
C 243 2000 762 1408 1414 1408 
C 1952 1408 2189 1910 2253 2122 
L 2253 1871 
z
M 1427 1510 
C 1254 1510 1011 1542 813 1929 
C 678 2181 678 2477 678 2793 
C 678 3174 678 3438 858 3722 
C 947 3857 1114 4076 1485 4076 
C 2240 4076 2240 2909 2240 2651 
C 2240 2193 2035 1510 1427 1510 
z
" transform="scale(0.015625)"/>
       </defs>
       <use xlink:href="#CMR17-30" transform="scale(0.996264)"/>
       <use xlink:href="#CMMI12-3a" transform="translate(45.690477 0) scale(0.996264)"/>
       <use xlink:href="#CMR17-39" transform="translate(72.787654 0) scale(0.996264)"/>
      </g>
     </g>
    </g>
    <g id="ytick_10">
     <g id="line2d_15">
      <g>
       <use xlink:href="#m2d2416a4b5" x="35.585996" y="43.504898" style="stroke: #000000; stroke-width: 0.8"/>
      </g>
     </g>
     <g id="text_16">
      <!-- $\mathdefault{1.0}$ -->
      <g transform="translate(15.855917 46.964147) scale(0.1 -0.1)">
       <use xlink:href="#CMR17-31" transform="scale(0.996264)"/>
       <use xlink:href="#CMMI12-3a" transform="translate(45.690477 0) scale(0.996264)"/>
       <use xlink:href="#CMR17-30" transform="translate(72.787654 0) scale(0.996264)"/>
      </g>
     </g>
    </g>
    <g id="text_17">
     <!-- Timestep Size $\lambda$ -->
     <g transform="translate(9.918738 191.885911) rotate(-90) scale(0.1 -0.1)">
      <defs>
       <path id="CMSS17-54" d="M 2317 3987 
L 2848 3987 
C 2925 3987 3002 3980 3078 3980 
L 3878 3980 
L 3878 4396 
L 218 4396 
L 218 3980 
L 1018 3980 
C 1094 3980 1171 3987 1248 3987 
L 1779 3987 
L 1779 0 
L 2317 0 
L 2317 3987 
z
" transform="scale(0.015625)"/>
       <path id="CMSS17-6d" d="M 4288 1878 
C 4288 2309 4179 2816 3462 2816 
C 2982 2816 2694 2515 2566 2328 
C 2451 2668 2182 2816 1798 2816 
C 1363 2816 1088 2566 941 2386 
L 941 2783 
L 474 2783 
L 474 0 
L 960 0 
L 960 1556 
C 960 1936 1101 2425 1555 2425 
C 2138 2425 2138 2013 2138 1826 
L 2138 0 
L 2624 0 
L 2624 1556 
C 2624 1936 2765 2425 3219 2425 
C 3802 2425 3802 2013 3802 1826 
L 3802 0 
L 4288 0 
L 4288 1878 
z
" transform="scale(0.015625)"/>
       <path id="CMSS17-70" d="M 966 275 
C 1178 70 1466 -64 1773 -64 
C 2368 -64 2880 553 2880 1382 
C 2880 2147 2496 2816 1946 2816 
C 1626 2816 1242 2700 954 2470 
L 954 2764 
L 480 2764 
L 480 -1280 
L 966 -1280 
L 966 275 
z
M 966 2088 
C 1018 2166 1235 2412 1587 2412 
C 2035 2412 2394 1946 2394 1382 
C 2394 741 1958 326 1530 326 
C 1402 326 1267 358 1139 468 
C 966 624 966 721 966 812 
L 966 2088 
z
" transform="scale(0.015625)"/>
       <path id="CMSS17-7a" d="M 2400 2502 
L 2400 2752 
L 250 2752 
L 250 2367 
L 1069 2367 
C 1146 2367 1222 2374 1299 2374 
L 1747 2374 
L 166 262 
L 166 0 
L 2419 0 
L 2419 396 
L 1549 396 
C 1472 396 1395 390 1318 390 
L 826 390 
L 2400 2502 
z
" transform="scale(0.015625)"/>
       <path id="CMMI12-15" d="M 1978 3963 
C 1818 4416 1312 4416 1229 4416 
C 1190 4416 1120 4416 1120 4351 
C 1120 4300 1158 4294 1190 4287 
C 1286 4275 1363 4262 1466 4078 
C 1530 3957 2189 2055 2189 2042 
C 2189 2036 2182 2029 2131 1978 
L 467 305 
C 390 229 339 178 339 95 
C 339 6 416 -71 518 -71 
C 544 -71 614 -58 653 -20 
C 755 76 1670 1190 2253 1877 
C 2419 1380 2624 795 2822 261 
C 2854 165 2886 76 2976 -7 
C 3040 -64 3053 -64 3232 -64 
L 3354 -64 
C 3379 -64 3424 -64 3424 -13 
C 3424 12 3418 19 3392 44 
C 3334 114 3290 229 3264 305 
L 1978 3963 
z
" transform="scale(0.015625)"/>
      </defs>
      <use xlink:href="#CMSS17-54" transform="scale(0.996264)"/>
      <use xlink:href="#CMSS17-69" transform="translate(63.819454 0) scale(0.996264)"/>
      <use xlink:href="#CMSS17-6d" transform="translate(86.000177 0) scale(0.996264)"/>
      <use xlink:href="#CMSS17-65" transform="translate(160.229431 0) scale(0.996264)"/>
      <use xlink:href="#CMSS17-73" transform="translate(201.868253 0) scale(0.996264)"/>
      <use xlink:href="#CMSS17-74" transform="translate(237.781795 0) scale(0.996264)"/>
      <use xlink:href="#CMSS17-65" transform="translate(271.613362 0) scale(0.996264)"/>
      <use xlink:href="#CMSS17-70" transform="translate(313.252184 0) scale(0.996264)"/>
      <use xlink:href="#CMSS17-53" transform="translate(392.68624 0) scale(0.996264)"/>
      <use xlink:href="#CMSS17-69" transform="translate(444.734756 0) scale(0.996264)"/>
      <use xlink:href="#CMSS17-7a" transform="translate(466.915479 0) scale(0.996264)"/>
      <use xlink:href="#CMSS17-65" transform="translate(507.593351 0) scale(0.996264)"/>
      <use xlink:href="#CMMI12-15" transform="translate(580.461286 0) scale(0.996264)"/>
     </g>
    </g>
   </g>
   <g id="patch_3">
    <path d="M 35.585996 272.645444 
L 35.585996 43.504898 
" style="fill: none; stroke: #000000; stroke-width: 0.8; stroke-linejoin: miter; stroke-linecap: square"/>
   </g>
   <g id="patch_4">
    <path d="M 302.268584 272.645444 
L 302.268584 43.504898 
" style="fill: none; stroke: #000000; stroke-width: 0.8; stroke-linejoin: miter; stroke-linecap: square"/>
   </g>
   <g id="patch_5">
    <path d="M 35.585996 272.645444 
L 302.268584 272.645444 
" style="fill: none; stroke: #000000; stroke-width: 0.8; stroke-linejoin: miter; stroke-linecap: square"/>
   </g>
   <g id="patch_6">
    <path d="M 35.585996 43.504898 
L 302.268584 43.504898 
" style="fill: none; stroke: #000000; stroke-width: 0.8; stroke-linejoin: miter; stroke-linecap: square"/>
   </g>
   <g id="text_18">
    <!-- SESPH -->
    <g transform="translate(151.112367 37.504898) scale(0.12 -0.12)">
     <defs>
      <path id="CMSS17-45" d="M 1958 435 
C 1446 435 1216 435 1101 428 
L 1101 2105 
L 3085 2105 
L 3085 2496 
L 1101 2496 
L 1101 3993 
L 1926 3993 
C 2003 3993 2080 3987 2157 3987 
L 3251 3987 
L 3251 4403 
L 563 4403 
L 563 0 
L 3334 0 
L 3334 441 
L 1958 435 
z
" transform="scale(0.015625)"/>
      <path id="CMSS17-50" d="M 2106 1856 
C 2874 1856 3501 2447 3501 3139 
C 3501 3818 2899 4416 2067 4416 
L 570 4416 
L 570 0 
L 1107 0 
L 1107 1856 
L 2106 1856 
z
M 1926 4057 
C 2669 4057 2995 3598 2995 3139 
C 2995 2711 2694 2227 1926 2227 
L 1094 2227 
L 1094 4057 
L 1926 4057 
z
" transform="scale(0.015625)"/>
      <path id="CMSS17-48" d="M 3674 4416 
L 3136 4416 
L 3136 2496 
L 1101 2496 
L 1101 4416 
L 563 4416 
L 563 0 
L 1101 0 
L 1101 2105 
L 3136 2105 
L 3136 0 
L 3674 0 
L 3674 4416 
z
" transform="scale(0.015625)"/>
     </defs>
     <use xlink:href="#CMSS17-53" transform="scale(0.996264)"/>
     <use xlink:href="#CMSS17-45" transform="translate(52.048516 0) scale(0.996264)"/>
     <use xlink:href="#CMSS17-53" transform="translate(107.940529 0) scale(0.996264)"/>
     <use xlink:href="#CMSS17-50" transform="translate(159.989046 0) scale(0.996264)"/>
     <use xlink:href="#CMSS17-48" transform="translate(219.724632 0) scale(0.996264)"/>
    </g>
   </g>
  </g>
  <g id="axes_2">
   <g id="patch_7">
    <path d="M 311.769064 272.645444 
L 578.451652 272.645444 
L 578.451652 43.504898 
L 311.769064 43.504898 
z
" style="fill: #ffffff"/>
   </g>
   <g id="PathCollection_21"/>
   <g id="PathCollection_22">
    <path d="M 311.769064 230.298239 
L 311.769064 272.645444 
L 323.60323 272.645444 
z
" clip-path="url(#p98d9d6932b)" style="fill: #0d0a29"/>
    <path d="M 313.854938 158.075171 
L 311.769064 110.325813 
L 311.769064 158.075171 
L 311.769064 180.147614 
z
" clip-path="url(#p98d9d6932b)" style="fill: #0d0a29"/>
    <path d="M 314.686476 43.504898 
L 311.769064 43.504898 
L 311.769064 93.921519 
z
" clip-path="url(#p98d9d6932b)" style="fill: #0d0a29"/>
   </g>
   <g id="PathCollection_23">
    <path d="M 329.737082 215.360308 
L 333.291355 158.075171 
L 331.180593 100.790035 
L 333.231458 43.504898 
L 314.686476 43.504898 
L 311.769064 93.921519 
L 311.769064 100.790035 
L 311.769064 110.325813 
L 313.854938 158.075171 
L 311.769064 180.147614 
L 311.769064 215.360308 
L 311.769064 230.298239 
L 323.60323 272.645444 
L 347.985981 272.645444 
z
" clip-path="url(#p98d9d6932b)" style="fill: #1d1147"/>
   </g>
   <g id="PathCollection_24">
    <path d="M 351.416815 215.360308 
L 352.727772 158.075171 
L 351.017259 100.790035 
L 351.77644 43.504898 
L 333.231458 43.504898 
L 331.180593 100.790035 
L 333.291355 158.075171 
L 329.737082 215.360308 
L 347.985981 272.645444 
L 372.368732 272.645444 
z
" clip-path="url(#p98d9d6932b)" style="fill: #2f1163"/>
   </g>
   <g id="PathCollection_25">
    <path d="M 378.439711 272.645444 
L 437.664888 272.645444 
L 378.439711 229.514517 
L 373.096548 215.360308 
L 372.164188 158.075171 
L 370.853926 100.790035 
L 370.321423 43.504898 
L 351.77644 43.504898 
L 351.017259 100.790035 
L 352.727772 158.075171 
L 351.416815 215.360308 
L 372.368732 272.645444 
z
" clip-path="url(#p98d9d6932b)" style="fill: #451077"/>
   </g>
   <g id="PathCollection_26">
    <path d="M 378.439711 229.514517 
L 437.664888 272.645444 
L 445.110358 272.645444 
L 511.781005 272.645444 
L 578.451652 272.645444 
L 578.451652 267.679818 
L 511.781005 263.722067 
L 445.110358 256.952845 
L 394.369617 215.360308 
L 388.181222 158.075171 
L 385.966289 100.790035 
L 384.480986 43.504898 
L 378.439711 43.504898 
L 370.321423 43.504898 
L 370.853926 100.790035 
L 372.164188 158.075171 
L 373.096548 215.360308 
z
" clip-path="url(#p98d9d6932b)" style="fill: #5a167e"/>
   </g>
   <g id="PathCollection_27">
    <path d="M 445.110358 256.952845 
L 511.781005 263.722067 
L 578.451652 267.679818 
L 578.451652 251.590102 
L 511.781005 247.127629 
L 445.110358 239.62419 
L 415.509678 215.360308 
L 402.567789 158.075171 
L 398.153349 100.790035 
L 395.226035 43.504898 
L 384.480986 43.504898 
L 385.966289 100.790035 
L 388.181222 158.075171 
L 394.369617 215.360308 
z
" clip-path="url(#p98d9d6932b)" style="fill: #6e1e81"/>
   </g>
   <g id="PathCollection_28">
    <path d="M 445.110358 239.62419 
L 511.781005 247.127629 
L 578.451652 251.590102 
L 578.451652 235.500387 
L 511.781005 230.53319 
L 445.110358 222.295535 
L 436.649739 215.360308 
L 416.954355 158.075171 
L 410.34041 100.790035 
L 405.971084 43.504898 
L 395.226035 43.504898 
L 398.153349 100.790035 
L 402.567789 158.075171 
L 415.509678 215.360308 
z
" clip-path="url(#p98d9d6932b)" style="fill: #832681"/>
   </g>
   <g id="PathCollection_29">
    <path d="M 445.110358 222.295535 
L 511.781005 230.53319 
L 578.451652 235.500387 
L 578.451652 219.410672 
L 528.708395 215.360308 
L 511.781005 212.62598 
L 445.110358 193.291497 
L 431.340921 158.075171 
L 422.52747 100.790035 
L 416.716133 43.504898 
L 405.971084 43.504898 
L 410.34041 100.790035 
L 416.954355 158.075171 
L 436.649739 215.360308 
z
" clip-path="url(#p98d9d6932b)" style="fill: #962c80"/>
   </g>
   <g id="PathCollection_30">
    <path d="M 578.451652 219.410672 
L 578.451652 215.360308 
L 578.451652 190.72507 
L 511.781005 180.706994 
L 448.913765 158.075171 
L 445.110358 155.332381 
L 434.71453 100.790035 
L 427.461183 43.504898 
L 416.716133 43.504898 
L 422.52747 100.790035 
L 431.340921 158.075171 
L 445.110358 193.291497 
L 511.781005 212.62598 
L 528.708395 215.360308 
z
" clip-path="url(#p98d9d6932b)" style="fill: #ab337c"/>
   </g>
   <g id="PathCollection_31">
    <path d="M 511.781005 180.706994 
L 578.451652 190.72507 
L 578.451652 158.075171 
L 578.451652 157.70189 
L 511.781005 142.988755 
L 455.30893 100.790035 
L 445.110358 90.12573 
L 438.206232 43.504898 
L 427.461183 43.504898 
L 434.71453 100.790035 
L 445.110358 155.332381 
L 448.913765 158.075171 
z
" clip-path="url(#p98d9d6932b)" style="fill: #c03a76"/>
   </g>
   <g id="PathCollection_32">
    <path d="M 511.781005 142.988755 
L 578.451652 157.70189 
L 578.451652 112.734456 
L 539.251682 100.790035 
L 511.781005 90.43124 
L 464.958623 43.504898 
L 445.110358 43.504898 
L 438.206232 43.504898 
L 445.110358 90.12573 
L 455.30893 100.790035 
z
" clip-path="url(#p98d9d6932b)" style="fill: #d5446d"/>
   </g>
   <g id="PathCollection_33">
    <path d="M 578.451652 112.734456 
L 578.451652 100.790035 
L 578.451652 62.849022 
L 531.455437 43.504898 
L 511.781005 43.504898 
L 464.958623 43.504898 
L 511.781005 90.43124 
L 539.251682 100.790035 
z
" clip-path="url(#p98d9d6932b)" style="fill: #e75263"/>
   </g>
   <g id="PathCollection_34">
    <path d="M 578.451652 62.849022 
L 578.451652 43.504898 
L 531.455437 43.504898 
z
" clip-path="url(#p98d9d6932b)" style="fill: #f2645c"/>
   </g>
   <g id="PathCollection_35"/>
   <g id="PathCollection_36"/>
   <g id="PathCollection_37"/>
   <g id="PathCollection_38"/>
   <g id="PathCollection_39"/>
   <g id="PathCollection_40"/>
   <g id="matplotlib.axis_3">
    <g id="xtick_6">
     <g id="line2d_16">
      <g>
       <use xlink:href="#m37234db41c" x="338.437323" y="272.645444" style="stroke: #000000; stroke-width: 0.8"/>
      </g>
     </g>
     <g id="text_19">
      <!-- $\mathdefault{600}$ -->
      <g transform="translate(330.96532 286.563943) scale(0.1 -0.1)">
       <use xlink:href="#CMR17-36" transform="scale(0.996264)"/>
       <use xlink:href="#CMR17-30" transform="translate(45.690477 0) scale(0.996264)"/>
       <use xlink:href="#CMR17-30" transform="translate(91.380954 0) scale(0.996264)"/>
      </g>
     </g>
    </g>
    <g id="xtick_7">
     <g id="line2d_17">
      <g>
       <use xlink:href="#m37234db41c" x="391.77384" y="272.645444" style="stroke: #000000; stroke-width: 0.8"/>
      </g>
     </g>
     <g id="text_20">
      <!-- $\mathdefault{800}$ -->
      <g transform="translate(384.301838 286.563943) scale(0.1 -0.1)">
       <use xlink:href="#CMR17-38" transform="scale(0.996264)"/>
       <use xlink:href="#CMR17-30" transform="translate(45.690477 0) scale(0.996264)"/>
       <use xlink:href="#CMR17-30" transform="translate(91.380954 0) scale(0.996264)"/>
      </g>
     </g>
    </g>
    <g id="xtick_8">
     <g id="line2d_18">
      <g>
       <use xlink:href="#m37234db41c" x="445.110358" y="272.645444" style="stroke: #000000; stroke-width: 0.8"/>
      </g>
     </g>
     <g id="text_21">
      <!-- $\mathdefault{1000}$ -->
      <g transform="translate(435.147688 286.563943) scale(0.1 -0.1)">
       <use xlink:href="#CMR17-31" transform="scale(0.996264)"/>
       <use xlink:href="#CMR17-30" transform="translate(45.690477 0) scale(0.996264)"/>
       <use xlink:href="#CMR17-30" transform="translate(91.380954 0) scale(0.996264)"/>
       <use xlink:href="#CMR17-30" transform="translate(137.071431 0) scale(0.996264)"/>
      </g>
     </g>
    </g>
    <g id="xtick_9">
     <g id="line2d_19">
      <g>
       <use xlink:href="#m37234db41c" x="498.446876" y="272.645444" style="stroke: #000000; stroke-width: 0.8"/>
      </g>
     </g>
     <g id="text_22">
      <!-- $\mathdefault{1200}$ -->
      <g transform="translate(488.484205 286.563943) scale(0.1 -0.1)">
       <use xlink:href="#CMR17-31" transform="scale(0.996264)"/>
       <use xlink:href="#CMR17-32" transform="translate(45.690477 0) scale(0.996264)"/>
       <use xlink:href="#CMR17-30" transform="translate(91.380954 0) scale(0.996264)"/>
       <use xlink:href="#CMR17-30" transform="translate(137.071431 0) scale(0.996264)"/>
      </g>
     </g>
    </g>
    <g id="xtick_10">
     <g id="line2d_20">
      <g>
       <use xlink:href="#m37234db41c" x="551.783393" y="272.645444" style="stroke: #000000; stroke-width: 0.8"/>
      </g>
     </g>
     <g id="text_23">
      <!-- $\mathdefault{1400}$ -->
      <g transform="translate(541.820723 286.563943) scale(0.1 -0.1)">
       <use xlink:href="#CMR17-31" transform="scale(0.996264)"/>
       <use xlink:href="#CMR17-34" transform="translate(45.690477 0) scale(0.996264)"/>
       <use xlink:href="#CMR17-30" transform="translate(91.380954 0) scale(0.996264)"/>
       <use xlink:href="#CMR17-30" transform="translate(137.071431 0) scale(0.996264)"/>
      </g>
     </g>
    </g>
    <g id="text_24">
     <!-- Stiffness $k$ -->
     <g transform="translate(423.588032 299.419619) scale(0.1 -0.1)">
      <use xlink:href="#CMSS17-53" transform="scale(0.996264)"/>
      <use xlink:href="#CMSS17-74" transform="translate(52.048516 0) scale(0.996264)"/>
      <use xlink:href="#CMSS17-69" transform="translate(85.880083 0) scale(0.996264)"/>
      <use xlink:href="#CMSS17-b" transform="translate(108.060806 0) scale(0.996264)"/>
      <use xlink:href="#CMSS17-6e" transform="translate(162.711776 0) scale(0.996264)"/>
      <use xlink:href="#CMSS17-65" transform="translate(210.916719 0) scale(0.996264)"/>
      <use xlink:href="#CMSS17-73" transform="translate(252.555541 0) scale(0.996264)"/>
      <use xlink:href="#CMSS17-73" transform="translate(288.469083 0) scale(0.996264)"/>
      <use xlink:href="#CMMI12-6b" transform="translate(355.611738 0) scale(0.996264)"/>
     </g>
    </g>
   </g>
   <g id="matplotlib.axis_4">
    <g id="ytick_11">
     <g id="line2d_21">
      <g>
       <use xlink:href="#m2d2416a4b5" x="311.769064" y="272.645444" style="stroke: #000000; stroke-width: 0.8"/>
      </g>
     </g>
    </g>
    <g id="ytick_12">
     <g id="line2d_22">
      <g>
       <use xlink:href="#m2d2416a4b5" x="311.769064" y="247.185383" style="stroke: #000000; stroke-width: 0.8"/>
      </g>
     </g>
    </g>
    <g id="ytick_13">
     <g id="line2d_23">
      <g>
       <use xlink:href="#m2d2416a4b5" x="311.769064" y="221.725323" style="stroke: #000000; stroke-width: 0.8"/>
      </g>
     </g>
    </g>
    <g id="ytick_14">
     <g id="line2d_24">
      <g>
       <use xlink:href="#m2d2416a4b5" x="311.769064" y="196.265262" style="stroke: #000000; stroke-width: 0.8"/>
      </g>
     </g>
    </g>
    <g id="ytick_15">
     <g id="line2d_25">
      <g>
       <use xlink:href="#m2d2416a4b5" x="311.769064" y="170.805201" style="stroke: #000000; stroke-width: 0.8"/>
      </g>
     </g>
    </g>
    <g id="ytick_16">
     <g id="line2d_26">
      <g>
       <use xlink:href="#m2d2416a4b5" x="311.769064" y="145.345141" style="stroke: #000000; stroke-width: 0.8"/>
      </g>
     </g>
    </g>
    <g id="ytick_17">
     <g id="line2d_27">
      <g>
       <use xlink:href="#m2d2416a4b5" x="311.769064" y="119.88508" style="stroke: #000000; stroke-width: 0.8"/>
      </g>
     </g>
    </g>
    <g id="ytick_18">
     <g id="line2d_28">
      <g>
       <use xlink:href="#m2d2416a4b5" x="311.769064" y="94.425019" style="stroke: #000000; stroke-width: 0.8"/>
      </g>
     </g>
    </g>
    <g id="ytick_19">
     <g id="line2d_29">
      <g>
       <use xlink:href="#m2d2416a4b5" x="311.769064" y="68.964959" style="stroke: #000000; stroke-width: 0.8"/>
      </g>
     </g>
    </g>
    <g id="ytick_20">
     <g id="line2d_30">
      <g>
       <use xlink:href="#m2d2416a4b5" x="311.769064" y="43.504898" style="stroke: #000000; stroke-width: 0.8"/>
      </g>
     </g>
    </g>
   </g>
   <g id="patch_8">
    <path d="M 311.769064 272.645444 
L 311.769064 43.504898 
" style="fill: none; stroke: #000000; stroke-width: 0.8; stroke-linejoin: miter; stroke-linecap: square"/>
   </g>
   <g id="patch_9">
    <path d="M 578.451652 272.645444 
L 578.451652 43.504898 
" style="fill: none; stroke: #000000; stroke-width: 0.8; stroke-linejoin: miter; stroke-linecap: square"/>
   </g>
   <g id="patch_10">
    <path d="M 311.769064 272.645444 
L 578.451652 272.645444 
" style="fill: none; stroke: #000000; stroke-width: 0.8; stroke-linejoin: miter; stroke-linecap: square"/>
   </g>
   <g id="patch_11">
    <path d="M 311.769064 43.504898 
L 578.451652 43.504898 
" style="fill: none; stroke: #000000; stroke-width: 0.8; stroke-linejoin: miter; stroke-linecap: square"/>
   </g>
   <g id="text_25">
    <!-- SESPH with Splitting -->
    <g transform="translate(392.381669 37.504898) scale(0.12 -0.12)">
     <defs>
      <path id="CMSS17-77" d="M 4013 2752 
L 3526 2752 
L 3187 1600 
C 3117 1356 2918 684 2893 371 
L 2886 371 
C 2874 563 2765 1024 2586 1632 
L 2259 2752 
L 1818 2752 
L 1498 1657 
C 1338 1100 1216 627 1203 371 
L 1197 371 
C 1171 748 909 1632 870 1772 
L 582 2752 
L 83 2752 
L 915 0 
L 1402 0 
C 1734 1100 1990 1952 2010 2380 
C 2022 2169 2131 1715 2195 1491 
L 2618 0 
L 3181 0 
L 4013 2752 
z
" transform="scale(0.015625)"/>
      <path id="CMSS17-68" d="M 2618 1878 
C 2618 2283 2522 2816 1798 2816 
C 1395 2816 1133 2617 947 2399 
L 947 4416 
L 474 4416 
L 474 0 
L 960 0 
L 960 1556 
C 960 1962 1114 2425 1549 2425 
C 2112 2425 2131 2045 2131 1826 
L 2131 0 
L 2618 0 
L 2618 1878 
z
" transform="scale(0.015625)"/>
      <path id="CMSS17-6c" d="M 947 4416 
L 474 4416 
L 474 0 
L 947 0 
L 947 4416 
z
" transform="scale(0.015625)"/>
      <path id="CMSS17-67" d="M 2848 2816 
C 2483 2809 2170 2739 1914 2617 
C 1702 2783 1485 2816 1338 2816 
C 781 2816 358 2356 358 1824 
C 358 1481 550 1222 563 1209 
C 448 1049 384 876 384 684 
C 384 460 474 300 544 211 
C 211 6 166 -308 166 -429 
C 166 -896 749 -1280 1498 -1280 
C 2253 -1280 2835 -896 2835 -423 
C 2835 460 1856 467 1587 467 
L 1069 467 
C 973 467 717 467 717 793 
C 717 921 774 1004 781 1011 
C 877 940 1075 832 1338 832 
C 1869 832 2310 1279 2310 1824 
C 2310 2128 2170 2349 2112 2425 
L 2131 2425 
C 2150 2425 2419 2444 2515 2444 
C 2720 2444 2739 2438 2918 2419 
L 2848 2816 
z
M 1338 1184 
C 1120 1184 813 1317 813 1824 
C 813 2375 1165 2463 1331 2463 
C 1549 2463 1856 2330 1856 1824 
C 1856 1272 1504 1184 1338 1184 
z
M 1581 0 
C 1734 0 2381 0 2381 -436 
C 2381 -711 1984 -928 1504 -928 
C 1018 -928 621 -717 621 -429 
C 621 -397 621 0 1062 0 
L 1581 0 
z
" transform="scale(0.015625)"/>
     </defs>
     <use xlink:href="#CMSS17-53" transform="scale(0.996264)"/>
     <use xlink:href="#CMSS17-45" transform="translate(52.048516 0) scale(0.996264)"/>
     <use xlink:href="#CMSS17-53" transform="translate(107.940529 0) scale(0.996264)"/>
     <use xlink:href="#CMSS17-50" transform="translate(159.989046 0) scale(0.996264)"/>
     <use xlink:href="#CMSS17-48" transform="translate(219.724632 0) scale(0.996264)"/>
     <use xlink:href="#CMSS17-77" transform="translate(317.015264 0) scale(0.996264)"/>
     <use xlink:href="#CMSS17-69" transform="translate(380.834809 0) scale(0.996264)"/>
     <use xlink:href="#CMSS17-74" transform="translate(403.015532 0) scale(0.996264)"/>
     <use xlink:href="#CMSS17-68" transform="translate(436.847099 0) scale(0.996264)"/>
     <use xlink:href="#CMSS17-53" transform="translate(516.281155 0) scale(0.996264)"/>
     <use xlink:href="#CMSS17-70" transform="translate(568.329671 0) scale(0.996264)"/>
     <use xlink:href="#CMSS17-6c" transform="translate(616.534614 0) scale(0.996264)"/>
     <use xlink:href="#CMSS17-69" transform="translate(638.715337 0) scale(0.996264)"/>
     <use xlink:href="#CMSS17-74" transform="translate(660.89606 0) scale(0.996264)"/>
     <use xlink:href="#CMSS17-74" transform="translate(694.727627 0) scale(0.996264)"/>
     <use xlink:href="#CMSS17-69" transform="translate(728.559193 0) scale(0.996264)"/>
     <use xlink:href="#CMSS17-6e" transform="translate(750.739916 0) scale(0.996264)"/>
     <use xlink:href="#CMSS17-67" transform="translate(798.944859 0) scale(0.996264)"/>
    </g>
   </g>
   <g id="axes_3">
    <g id="patch_12">
     <path d="M 311.769064 318.473553 
L 578.451652 318.473553 
L 578.451652 309.307932 
L 311.769064 309.307932 
z
" style="fill: #ffffff"/>
    </g>
    <g id="patch_13">
     <path clip-path="url(#pbee45c2e80)" style="fill: #ffffff; stroke: #ffffff; stroke-width: 0.01; stroke-linejoin: miter"/>
    </g>
    <g id="QuadMesh_1">
     <path d="M 311.769064 318.473553 
L 311.769064 309.307932 
L 325.103193 309.307932 
L 325.103193 318.473553 
L 311.769064 318.473553 
" clip-path="url(#pbee45c2e80)" style="fill: #02020d"/>
     <path d="M 325.103193 318.473553 
L 325.103193 309.307932 
L 338.437323 309.307932 
L 338.437323 318.473553 
L 325.103193 318.473553 
" clip-path="url(#pbee45c2e80)" style="fill: #0d0a29"/>
     <path d="M 338.437323 318.473553 
L 338.437323 309.307932 
L 351.771452 309.307932 
L 351.771452 318.473553 
L 338.437323 318.473553 
" clip-path="url(#pbee45c2e80)" style="fill: #1d1147"/>
     <path d="M 351.771452 318.473553 
L 351.771452 309.307932 
L 365.105582 309.307932 
L 365.105582 318.473553 
L 351.771452 318.473553 
" clip-path="url(#pbee45c2e80)" style="fill: #2f1163"/>
     <path d="M 365.105582 318.473553 
L 365.105582 309.307932 
L 378.439711 309.307932 
L 378.439711 318.473553 
L 365.105582 318.473553 
" clip-path="url(#pbee45c2e80)" style="fill: #451077"/>
     <path d="M 378.439711 318.473553 
L 378.439711 309.307932 
L 391.77384 309.307932 
L 391.77384 318.473553 
L 378.439711 318.473553 
" clip-path="url(#pbee45c2e80)" style="fill: #5a167e"/>
     <path d="M 391.77384 318.473553 
L 391.77384 309.307932 
L 405.10797 309.307932 
L 405.10797 318.473553 
L 391.77384 318.473553 
" clip-path="url(#pbee45c2e80)" style="fill: #6e1e81"/>
     <path d="M 405.10797 318.473553 
L 405.10797 309.307932 
L 418.442099 309.307932 
L 418.442099 318.473553 
L 405.10797 318.473553 
" clip-path="url(#pbee45c2e80)" style="fill: #832681"/>
     <path d="M 418.442099 318.473553 
L 418.442099 309.307932 
L 431.776229 309.307932 
L 431.776229 318.473553 
L 418.442099 318.473553 
" clip-path="url(#pbee45c2e80)" style="fill: #962c80"/>
     <path d="M 431.776229 318.473553 
L 431.776229 309.307932 
L 445.110358 309.307932 
L 445.110358 318.473553 
L 431.776229 318.473553 
" clip-path="url(#pbee45c2e80)" style="fill: #ab337c"/>
     <path d="M 445.110358 318.473553 
L 445.110358 309.307932 
L 458.444488 309.307932 
L 458.444488 318.473553 
L 445.110358 318.473553 
" clip-path="url(#pbee45c2e80)" style="fill: #c03a76"/>
     <path d="M 458.444488 318.473553 
L 458.444488 309.307932 
L 471.778617 309.307932 
L 471.778617 318.473553 
L 458.444488 318.473553 
" clip-path="url(#pbee45c2e80)" style="fill: #d5446d"/>
     <path d="M 471.778617 318.473553 
L 471.778617 309.307932 
L 485.112746 309.307932 
L 485.112746 318.473553 
L 471.778617 318.473553 
" clip-path="url(#pbee45c2e80)" style="fill: #e75263"/>
     <path d="M 485.112746 318.473553 
L 485.112746 309.307932 
L 498.446876 309.307932 
L 498.446876 318.473553 
L 485.112746 318.473553 
" clip-path="url(#pbee45c2e80)" style="fill: #f2645c"/>
     <path d="M 498.446876 318.473553 
L 498.446876 309.307932 
L 511.781005 309.307932 
L 511.781005 318.473553 
L 498.446876 318.473553 
" clip-path="url(#pbee45c2e80)" style="fill: #f97b5d"/>
     <path d="M 511.781005 318.473553 
L 511.781005 309.307932 
L 525.115135 309.307932 
L 525.115135 318.473553 
L 511.781005 318.473553 
" clip-path="url(#pbee45c2e80)" style="fill: #fd9467"/>
     <path d="M 525.115135 318.473553 
L 525.115135 309.307932 
L 538.449264 309.307932 
L 538.449264 318.473553 
L 525.115135 318.473553 
" clip-path="url(#pbee45c2e80)" style="fill: #feac76"/>
     <path d="M 538.449264 318.473553 
L 538.449264 309.307932 
L 551.783393 309.307932 
L 551.783393 318.473553 
L 538.449264 318.473553 
" clip-path="url(#pbee45c2e80)" style="fill: #fec488"/>
     <path d="M 551.783393 318.473553 
L 551.783393 309.307932 
L 565.117523 309.307932 
L 565.117523 318.473553 
L 551.783393 318.473553 
" clip-path="url(#pbee45c2e80)" style="fill: #fdda9c"/>
     <path d="M 565.117523 318.473553 
L 565.117523 309.307932 
L 578.451652 309.307932 
L 578.451652 318.473553 
L 565.117523 318.473553 
" clip-path="url(#pbee45c2e80)" style="fill: #fcf2b4"/>
    </g>
    <g id="matplotlib.axis_5">
     <g id="xtick_11">
      <g id="line2d_31">
       <g>
        <use xlink:href="#m37234db41c" x="338.437323" y="318.473553" style="stroke: #000000; stroke-width: 0.8"/>
       </g>
      </g>
      <g id="text_26">
       <!-- $\mathdefault{9.0}$ -->
       <g transform="translate(328.197911 332.392052) scale(0.1 -0.1)">
        <defs>
         <path id="CMSY10-0" d="M 4218 1472 
C 4326 1472 4442 1472 4442 1600 
C 4442 1728 4326 1728 4218 1728 
L 755 1728 
C 646 1728 531 1728 531 1600 
C 531 1472 646 1472 755 1472 
L 4218 1472 
z
" transform="scale(0.015625)"/>
        </defs>
        <use xlink:href="#CMSY10-0" transform="scale(0.996264)"/>
        <use xlink:href="#CMR17-39" transform="translate(77.487468 0) scale(0.996264)"/>
        <use xlink:href="#CMMI12-3a" transform="translate(123.177945 0) scale(0.996264)"/>
        <use xlink:href="#CMR17-30" transform="translate(150.275122 0) scale(0.996264)"/>
       </g>
      </g>
     </g>
     <g id="xtick_12">
      <g id="line2d_32">
       <g>
        <use xlink:href="#m37234db41c" x="378.439711" y="318.473553" style="stroke: #000000; stroke-width: 0.8"/>
       </g>
      </g>
      <g id="text_27">
       <!-- $\mathdefault{7.5}$ -->
       <g transform="translate(368.2003 332.392052) scale(0.1 -0.1)">
        <use xlink:href="#CMSY10-0" transform="scale(0.996264)"/>
        <use xlink:href="#CMR17-37" transform="translate(77.487468 0) scale(0.996264)"/>
        <use xlink:href="#CMMI12-3a" transform="translate(123.177945 0) scale(0.996264)"/>
        <use xlink:href="#CMR17-35" transform="translate(150.275122 0) scale(0.996264)"/>
       </g>
      </g>
     </g>
     <g id="xtick_13">
      <g id="line2d_33">
       <g>
        <use xlink:href="#m37234db41c" x="418.442099" y="318.473553" style="stroke: #000000; stroke-width: 0.8"/>
       </g>
      </g>
      <g id="text_28">
       <!-- $\mathdefault{6.0}$ -->
       <g transform="translate(408.202688 332.392052) scale(0.1 -0.1)">
        <use xlink:href="#CMSY10-0" transform="scale(0.996264)"/>
        <use xlink:href="#CMR17-36" transform="translate(77.487468 0) scale(0.996264)"/>
        <use xlink:href="#CMMI12-3a" transform="translate(123.177945 0) scale(0.996264)"/>
        <use xlink:href="#CMR17-30" transform="translate(150.275122 0) scale(0.996264)"/>
       </g>
      </g>
     </g>
     <g id="xtick_14">
      <g id="line2d_34">
       <g>
        <use xlink:href="#m37234db41c" x="458.444488" y="318.473553" style="stroke: #000000; stroke-width: 0.8"/>
       </g>
      </g>
      <g id="text_29">
       <!-- $\mathdefault{4.5}$ -->
       <g transform="translate(448.205076 332.392052) scale(0.1 -0.1)">
        <use xlink:href="#CMSY10-0" transform="scale(0.996264)"/>
        <use xlink:href="#CMR17-34" transform="translate(77.487468 0) scale(0.996264)"/>
        <use xlink:href="#CMMI12-3a" transform="translate(123.177945 0) scale(0.996264)"/>
        <use xlink:href="#CMR17-35" transform="translate(150.275122 0) scale(0.996264)"/>
       </g>
      </g>
     </g>
     <g id="xtick_15">
      <g id="line2d_35">
       <g>
        <use xlink:href="#m37234db41c" x="498.446876" y="318.473553" style="stroke: #000000; stroke-width: 0.8"/>
       </g>
      </g>
      <g id="text_30">
       <!-- $\mathdefault{3.0}$ -->
       <g transform="translate(488.207464 332.392052) scale(0.1 -0.1)">
        <use xlink:href="#CMSY10-0" transform="scale(0.996264)"/>
        <use xlink:href="#CMR17-33" transform="translate(77.487468 0) scale(0.996264)"/>
        <use xlink:href="#CMMI12-3a" transform="translate(123.177945 0) scale(0.996264)"/>
        <use xlink:href="#CMR17-30" transform="translate(150.275122 0) scale(0.996264)"/>
       </g>
      </g>
     </g>
     <g id="xtick_16">
      <g id="line2d_36">
       <g>
        <use xlink:href="#m37234db41c" x="538.449264" y="318.473553" style="stroke: #000000; stroke-width: 0.8"/>
       </g>
      </g>
      <g id="text_31">
       <!-- $\mathdefault{1.5}$ -->
       <g transform="translate(528.209853 332.392052) scale(0.1 -0.1)">
        <use xlink:href="#CMSY10-0" transform="scale(0.996264)"/>
        <use xlink:href="#CMR17-31" transform="translate(77.487468 0) scale(0.996264)"/>
        <use xlink:href="#CMMI12-3a" transform="translate(123.177945 0) scale(0.996264)"/>
        <use xlink:href="#CMR17-35" transform="translate(150.275122 0) scale(0.996264)"/>
       </g>
      </g>
     </g>
     <g id="xtick_17">
      <g id="line2d_37">
       <g>
        <use xlink:href="#m37234db41c" x="578.451652" y="318.473553" style="stroke: #000000; stroke-width: 0.8"/>
       </g>
      </g>
      <g id="text_32">
       <!-- $\mathdefault{0.0}$ -->
       <g transform="translate(572.086613 332.392052) scale(0.1 -0.1)">
        <use xlink:href="#CMR17-30" transform="scale(0.996264)"/>
        <use xlink:href="#CMMI12-3a" transform="translate(45.690477 0) scale(0.996264)"/>
        <use xlink:href="#CMR17-30" transform="translate(72.787654 0) scale(0.996264)"/>
       </g>
      </g>
     </g>
     <g id="text_33">
      <!-- $E_{kin, int}$\\lower is better -->
      <g transform="translate(415.526823 345.137014) scale(0.1 -0.1)">
       <defs>
        <path id="CMMI12-45" d="M 4448 1489 
C 4454 1508 4474 1553 4474 1578 
C 4474 1611 4448 1643 4410 1643 
C 4384 1643 4371 1636 4352 1617 
C 4339 1611 4339 1598 4282 1469 
C 3904 570 3629 185 2605 185 
L 1670 185 
C 1581 185 1568 185 1530 192 
C 1459 198 1453 211 1453 262 
C 1453 307 1466 346 1478 403 
L 1920 2176 
L 2554 2176 
C 3053 2176 3091 2066 3091 1874 
C 3091 1810 3091 1752 3046 1559 
C 3034 1534 3027 1508 3027 1489 
C 3027 1444 3059 1424 3098 1424 
C 3155 1424 3162 1469 3187 1559 
L 3552 3036 
C 3552 3068 3526 3099 3488 3099 
C 3430 3099 3424 3074 3398 2986 
C 3270 2500 3142 2361 2573 2361 
L 1965 2361 
L 2362 3913 
C 2419 4134 2432 4153 2694 4153 
L 3610 4153 
C 4397 4153 4557 3945 4557 3465 
C 4557 3459 4557 3282 4531 3074 
C 4525 3049 4518 3011 4518 2998 
C 4518 2948 4550 2929 4589 2929 
C 4634 2929 4659 2954 4672 3068 
L 4806 4172 
C 4806 4191 4819 4255 4819 4268 
C 4819 4339 4762 4339 4646 4339 
L 1523 4339 
C 1402 4339 1338 4339 1338 4223 
C 1338 4153 1382 4153 1491 4153 
C 1888 4153 1888 4109 1888 4039 
C 1888 4008 1882 3983 1862 3913 
L 998 474 
C 941 249 928 185 480 185 
C 358 185 294 185 294 70 
C 294 0 333 0 461 0 
L 3674 0 
C 3814 0 3821 6 3866 108 
L 4448 1489 
z
" transform="scale(0.015625)"/>
        <path id="CMMI12-69" d="M 1811 913 
C 1811 945 1786 970 1747 970 
C 1690 970 1683 951 1651 842 
C 1485 261 1222 64 1011 64 
C 934 64 845 83 845 274 
C 845 447 922 638 992 830 
L 1440 2017 
C 1459 2068 1504 2183 1504 2305 
C 1504 2573 1312 2816 998 2816 
C 410 2816 173 1890 173 1838 
C 173 1813 198 1781 243 1781 
C 301 1781 307 1807 333 1896 
C 486 2432 730 2687 979 2687 
C 1037 2687 1146 2681 1146 2477 
C 1146 2311 1062 2100 1011 1960 
L 563 772 
C 525 670 486 568 486 453 
C 486 166 685 -64 992 -64 
C 1581 -64 1811 868 1811 913 
z
M 1760 4012 
C 1760 4108 1683 4224 1542 4224 
C 1395 4224 1229 4083 1229 3916 
C 1229 3756 1363 3705 1440 3705 
C 1613 3705 1760 3871 1760 4012 
z
" transform="scale(0.015625)"/>
        <path id="CMMI12-6e" d="M 1318 1870 
C 1331 1909 1491 2228 1728 2432 
C 1894 2585 2112 2687 2362 2687 
C 2618 2687 2707 2496 2707 2241 
C 2707 1877 2445 1149 2317 804 
C 2259 651 2227 568 2227 453 
C 2227 166 2426 -64 2733 -64 
C 3328 -64 3552 874 3552 913 
C 3552 945 3526 970 3488 970 
C 3430 970 3424 951 3392 842 
C 3245 319 3002 64 2752 64 
C 2688 64 2586 70 2586 274 
C 2586 434 2656 625 2694 715 
C 2822 1066 3091 1781 3091 2145 
C 3091 2528 2867 2816 2381 2816 
C 1811 2816 1510 2413 1395 2253 
C 1376 2617 1114 2816 832 2816 
C 627 2816 486 2694 378 2477 
C 262 2247 173 1864 173 1838 
C 173 1813 198 1781 243 1781 
C 294 1781 301 1787 339 1934 
C 442 2324 557 2687 813 2687 
C 960 2687 1011 2585 1011 2394 
C 1011 2253 947 2004 902 1807 
L 723 1117 
C 698 996 627 708 595 593 
C 550 427 480 127 480 95 
C 480 6 550 -64 646 -64 
C 723 -64 813 -26 864 70 
C 877 102 934 325 966 453 
L 1107 1028 
L 1318 1870 
z
" transform="scale(0.015625)"/>
        <path id="CMMI12-3b" d="M 1248 -26 
C 1248 345 1126 620 864 620 
C 659 620 557 454 557 313 
C 557 172 653 0 870 0 
C 954 0 1024 25 1082 83 
C 1094 96 1101 96 1107 96 
C 1120 96 1120 6 1120 -26 
C 1120 -233 1082 -642 710 -1051 
C 640 -1127 640 -1140 640 -1152 
C 640 -1184 672 -1216 704 -1216 
C 755 -1216 1248 -749 1248 -26 
z
" transform="scale(0.015625)"/>
        <path id="CMMI12-74" d="M 1286 2566 
L 1875 2566 
C 1997 2566 2061 2566 2061 2681 
C 2061 2752 2022 2752 1894 2752 
L 1331 2752 
L 1568 3664 
C 1594 3752 1594 3764 1594 3808 
C 1594 3910 1510 3968 1427 3968 
C 1376 3968 1229 3948 1178 3746 
L 928 2752 
L 326 2752 
C 198 2752 141 2752 141 2630 
C 141 2566 186 2566 307 2566 
L 877 2566 
L 454 881 
C 403 657 384 593 384 510 
C 384 210 595 -64 954 -64 
C 1600 -64 1946 868 1946 913 
C 1946 951 1920 970 1882 970 
C 1869 970 1843 970 1830 944 
C 1824 938 1818 932 1773 830 
C 1638 510 1344 64 973 64 
C 781 64 768 223 768 364 
C 768 370 768 491 787 568 
L 1286 2566 
z
" transform="scale(0.015625)"/>
        <path id="CMSS17-6f" d="M 2829 1356 
C 2829 2175 2221 2816 1504 2816 
C 768 2816 173 2156 173 1356 
C 173 544 787 -64 1498 -64 
C 2227 -64 2829 563 2829 1356 
z
M 1504 339 
C 1050 339 659 710 659 1407 
C 659 2150 1114 2425 1498 2425 
C 1914 2425 2342 2124 2342 1407 
C 2342 684 1926 339 1504 339 
z
" transform="scale(0.015625)"/>
        <path id="CMSS17-72" d="M 954 1369 
C 954 1974 1395 2379 1958 2392 
L 1958 2816 
C 1549 2809 1165 2604 934 2270 
L 934 2783 
L 480 2783 
L 480 0 
L 954 0 
L 954 1369 
z
" transform="scale(0.015625)"/>
        <path id="CMSS17-62" d="M 954 4416 
L 480 4416 
L 480 -13 
L 966 -13 
L 966 275 
C 1210 38 1504 -64 1766 -64 
C 2381 -64 2880 559 2880 1382 
C 2880 2133 2496 2816 1926 2816 
C 1523 2816 1165 2649 954 2476 
L 954 4416 
z
M 966 2095 
C 1107 2276 1306 2425 1587 2425 
C 1965 2425 2394 2146 2394 1382 
C 2394 566 1882 326 1530 326 
C 1402 326 1267 358 1139 468 
C 966 624 966 721 966 812 
L 966 2095 
z
" transform="scale(0.015625)"/>
       </defs>
       <use xlink:href="#CMMI12-45" transform="translate(14.94396 0) scale(0.996264)"/>
       <use xlink:href="#CMMI12-6b" transform="translate(87.155178 -14.943915) scale(0.697382)"/>
       <use xlink:href="#CMMI12-69" transform="translate(125.010428 -14.943915) scale(0.697382)"/>
       <use xlink:href="#CMMI12-6e" transform="translate(148.305336 -14.943915) scale(0.697382)"/>
       <use xlink:href="#CMMI12-3b" transform="translate(189.066179 -14.943915) scale(0.697382)"/>
       <use xlink:href="#CMMI12-69" transform="translate(208.034112 -14.943915) scale(0.697382)"/>
       <use xlink:href="#CMMI12-6e" transform="translate(231.329019 -14.943915) scale(0.697382)"/>
       <use xlink:href="#CMMI12-74" transform="translate(272.089862 -14.943915) scale(0.697382)"/>
       <use xlink:href="#CMSS17-6c" transform="translate(0 -98.685335) scale(0.996264)"/>
       <use xlink:href="#CMSS17-6f" transform="translate(22.180723 -98.685335) scale(0.996264)"/>
       <use xlink:href="#CMSS17-77" transform="translate(66.421893 -98.685335) scale(0.996264)"/>
       <use xlink:href="#CMSS17-65" transform="translate(127.638984 -98.685335) scale(0.996264)"/>
       <use xlink:href="#CMSS17-72" transform="translate(169.277806 -98.685335) scale(0.996264)"/>
       <use xlink:href="#CMSS17-69" transform="translate(232.416691 -98.685335) scale(0.996264)"/>
       <use xlink:href="#CMSS17-73" transform="translate(254.597414 -98.685335) scale(0.996264)"/>
       <use xlink:href="#CMSS17-62" transform="translate(321.740069 -98.685335) scale(0.996264)"/>
       <use xlink:href="#CMSS17-65" transform="translate(372.547451 -98.685335) scale(0.996264)"/>
       <use xlink:href="#CMSS17-74" transform="translate(414.186273 -98.685335) scale(0.996264)"/>
       <use xlink:href="#CMSS17-74" transform="translate(448.01784 -98.685335) scale(0.996264)"/>
       <use xlink:href="#CMSS17-65" transform="translate(481.849406 -98.685335) scale(0.996264)"/>
       <use xlink:href="#CMSS17-72" transform="translate(523.488228 -98.685335) scale(0.996264)"/>
      </g>
     </g>
    </g>
    <g id="matplotlib.axis_6"/>
    <g id="LineCollection_1"/>
    <g id="patch_14">
     <path d="M 311.769064 318.473553 
L 311.769064 313.890742 
L 311.769064 309.307932 
L 578.451652 309.307932 
L 578.451652 313.890742 
L 578.451652 318.473553 
L 311.769064 318.473553 
z
" style="fill: none; stroke: #000000; stroke-width: 0.8; stroke-linejoin: miter; stroke-linecap: square"/>
    </g>
   </g>
  </g>
  <g id="axes_4">
   <g id="patch_15">
    <path d="M 594.317172 272.645444 
L 860.99976 272.645444 
L 860.99976 43.504898 
L 594.317172 43.504898 
z
" style="fill: #ffffff"/>
   </g>
   <g id="PathCollection_41"/>
   <g id="PathCollection_42"/>
   <g id="PathCollection_43"/>
   <g id="PathCollection_44">
    <path d="M 628.640497 215.360308 
L 634.120835 158.075171 
L 632.578375 100.790035 
L 630.590271 43.504898 
L 594.317172 43.504898 
L 594.317172 100.790035 
L 594.317172 158.075171 
L 594.317172 215.360308 
L 594.317172 272.645444 
L 633.474173 272.645444 
z
" clip-path="url(#p42b55215f4)" style="fill: #2f1163"/>
   </g>
   <g id="PathCollection_45">
    <path d="M 660.987819 272.645444 
L 727.658466 272.645444 
L 794.329113 272.645444 
L 797.82061 272.645444 
L 794.329113 271.943603 
L 727.658466 241.71244 
L 705.059944 215.360308 
L 702.092832 158.075171 
L 695.573652 100.790035 
L 688.008849 43.504898 
L 660.987819 43.504898 
L 630.590271 43.504898 
L 632.578375 100.790035 
L 634.120835 158.075171 
L 628.640497 215.360308 
L 633.474173 272.645444 
z
" clip-path="url(#p42b55215f4)" style="fill: #451077"/>
   </g>
   <g id="PathCollection_46">
    <path d="M 727.658466 241.71244 
L 794.329113 271.943603 
L 797.82061 272.645444 
L 860.99976 272.645444 
L 860.99976 248.374943 
L 794.329113 217.234969 
L 791.238366 215.360308 
L 757.112014 158.075171 
L 740.721083 100.790035 
L 727.658466 47.732444 
L 726.42138 43.504898 
L 688.008849 43.504898 
L 695.573652 100.790035 
L 702.092832 158.075171 
L 705.059944 215.360308 
z
" clip-path="url(#p42b55215f4)" style="fill: #5a167e"/>
   </g>
   <g id="PathCollection_47">
    <path d="M 794.329113 217.234969 
L 860.99976 248.374943 
L 860.99976 216.767071 
L 858.062545 215.360308 
L 803.72483 158.075171 
L 794.329113 143.875418 
L 773.039059 100.790035 
L 754.701031 43.504898 
L 727.658466 43.504898 
L 726.42138 43.504898 
L 727.658466 47.732444 
L 740.721083 100.790035 
L 757.112014 158.075171 
L 791.238366 215.360308 
z
" clip-path="url(#p42b55215f4)" style="fill: #6e1e81"/>
   </g>
   <g id="PathCollection_48">
    <path d="M 860.99976 216.767071 
L 860.99976 215.360308 
L 860.99976 172.563895 
L 847.000765 158.075171 
L 807.275706 100.790035 
L 794.329113 75.050488 
L 782.64349 43.504898 
L 754.701031 43.504898 
L 773.039059 100.790035 
L 794.329113 143.875418 
L 803.72483 158.075171 
L 858.062545 215.360308 
z
" clip-path="url(#p42b55215f4)" style="fill: #832681"/>
   </g>
   <g id="PathCollection_49">
    <path d="M 860.99976 172.563895 
L 860.99976 158.075171 
L 860.99976 122.602554 
L 845.216461 100.790035 
L 813.642617 43.504898 
L 794.329113 43.504898 
L 782.64349 43.504898 
L 794.329113 75.050488 
L 807.275706 100.790035 
L 847.000765 158.075171 
z
" clip-path="url(#p42b55215f4)" style="fill: #962c80"/>
   </g>
   <g id="PathCollection_50">
    <path d="M 860.99976 122.602554 
L 860.99976 100.790035 
L 860.99976 67.68569 
L 846.838917 43.504898 
L 813.642617 43.504898 
L 845.216461 100.790035 
z
" clip-path="url(#p42b55215f4)" style="fill: #ab337c"/>
   </g>
   <g id="PathCollection_51">
    <path d="M 860.99976 67.68569 
L 860.99976 43.504898 
L 846.838917 43.504898 
z
" clip-path="url(#p42b55215f4)" style="fill: #c03a76"/>
   </g>
   <g id="PathCollection_52"/>
   <g id="PathCollection_53"/>
   <g id="PathCollection_54"/>
   <g id="PathCollection_55"/>
   <g id="PathCollection_56"/>
   <g id="PathCollection_57"/>
   <g id="PathCollection_58"/>
   <g id="PathCollection_59"/>
   <g id="PathCollection_60"/>
   <g id="matplotlib.axis_7">
    <g id="xtick_18">
     <g id="line2d_38">
      <g>
       <use xlink:href="#m37234db41c" x="620.985431" y="272.645444" style="stroke: #000000; stroke-width: 0.8"/>
      </g>
     </g>
     <g id="text_34">
      <!-- $\mathdefault{600}$ -->
      <g transform="translate(613.513428 286.563943) scale(0.1 -0.1)">
       <use xlink:href="#CMR17-36" transform="scale(0.996264)"/>
       <use xlink:href="#CMR17-30" transform="translate(45.690477 0) scale(0.996264)"/>
       <use xlink:href="#CMR17-30" transform="translate(91.380954 0) scale(0.996264)"/>
      </g>
     </g>
    </g>
    <g id="xtick_19">
     <g id="line2d_39">
      <g>
       <use xlink:href="#m37234db41c" x="674.321948" y="272.645444" style="stroke: #000000; stroke-width: 0.8"/>
      </g>
     </g>
     <g id="text_35">
      <!-- $\mathdefault{800}$ -->
      <g transform="translate(666.849945 286.563943) scale(0.1 -0.1)">
       <use xlink:href="#CMR17-38" transform="scale(0.996264)"/>
       <use xlink:href="#CMR17-30" transform="translate(45.690477 0) scale(0.996264)"/>
       <use xlink:href="#CMR17-30" transform="translate(91.380954 0) scale(0.996264)"/>
      </g>
     </g>
    </g>
    <g id="xtick_20">
     <g id="line2d_40">
      <g>
       <use xlink:href="#m37234db41c" x="727.658466" y="272.645444" style="stroke: #000000; stroke-width: 0.8"/>
      </g>
     </g>
     <g id="text_36">
      <!-- $\mathdefault{1000}$ -->
      <g transform="translate(717.695795 286.563943) scale(0.1 -0.1)">
       <use xlink:href="#CMR17-31" transform="scale(0.996264)"/>
       <use xlink:href="#CMR17-30" transform="translate(45.690477 0) scale(0.996264)"/>
       <use xlink:href="#CMR17-30" transform="translate(91.380954 0) scale(0.996264)"/>
       <use xlink:href="#CMR17-30" transform="translate(137.071431 0) scale(0.996264)"/>
      </g>
     </g>
    </g>
    <g id="xtick_21">
     <g id="line2d_41">
      <g>
       <use xlink:href="#m37234db41c" x="780.994984" y="272.645444" style="stroke: #000000; stroke-width: 0.8"/>
      </g>
     </g>
     <g id="text_37">
      <!-- $\mathdefault{1200}$ -->
      <g transform="translate(771.032313 286.563943) scale(0.1 -0.1)">
       <use xlink:href="#CMR17-31" transform="scale(0.996264)"/>
       <use xlink:href="#CMR17-32" transform="translate(45.690477 0) scale(0.996264)"/>
       <use xlink:href="#CMR17-30" transform="translate(91.380954 0) scale(0.996264)"/>
       <use xlink:href="#CMR17-30" transform="translate(137.071431 0) scale(0.996264)"/>
      </g>
     </g>
    </g>
    <g id="xtick_22">
     <g id="line2d_42">
      <g>
       <use xlink:href="#m37234db41c" x="834.331501" y="272.645444" style="stroke: #000000; stroke-width: 0.8"/>
      </g>
     </g>
     <g id="text_38">
      <!-- $\mathdefault{1400}$ -->
      <g transform="translate(824.368831 286.563943) scale(0.1 -0.1)">
       <use xlink:href="#CMR17-31" transform="scale(0.996264)"/>
       <use xlink:href="#CMR17-34" transform="translate(45.690477 0) scale(0.996264)"/>
       <use xlink:href="#CMR17-30" transform="translate(91.380954 0) scale(0.996264)"/>
       <use xlink:href="#CMR17-30" transform="translate(137.071431 0) scale(0.996264)"/>
      </g>
     </g>
    </g>
    <g id="text_39">
     <!-- Stiffness $k$ -->
     <g transform="translate(706.13614 299.419619) scale(0.1 -0.1)">
      <use xlink:href="#CMSS17-53" transform="scale(0.996264)"/>
      <use xlink:href="#CMSS17-74" transform="translate(52.048516 0) scale(0.996264)"/>
      <use xlink:href="#CMSS17-69" transform="translate(85.880083 0) scale(0.996264)"/>
      <use xlink:href="#CMSS17-b" transform="translate(108.060806 0) scale(0.996264)"/>
      <use xlink:href="#CMSS17-6e" transform="translate(162.711776 0) scale(0.996264)"/>
      <use xlink:href="#CMSS17-65" transform="translate(210.916719 0) scale(0.996264)"/>
      <use xlink:href="#CMSS17-73" transform="translate(252.555541 0) scale(0.996264)"/>
      <use xlink:href="#CMSS17-73" transform="translate(288.469083 0) scale(0.996264)"/>
      <use xlink:href="#CMMI12-6b" transform="translate(355.611738 0) scale(0.996264)"/>
     </g>
    </g>
   </g>
   <g id="matplotlib.axis_8">
    <g id="ytick_21">
     <g id="line2d_43">
      <g>
       <use xlink:href="#m2d2416a4b5" x="594.317172" y="272.645444" style="stroke: #000000; stroke-width: 0.8"/>
      </g>
     </g>
    </g>
    <g id="ytick_22">
     <g id="line2d_44">
      <g>
       <use xlink:href="#m2d2416a4b5" x="594.317172" y="247.185383" style="stroke: #000000; stroke-width: 0.8"/>
      </g>
     </g>
    </g>
    <g id="ytick_23">
     <g id="line2d_45">
      <g>
       <use xlink:href="#m2d2416a4b5" x="594.317172" y="221.725323" style="stroke: #000000; stroke-width: 0.8"/>
      </g>
     </g>
    </g>
    <g id="ytick_24">
     <g id="line2d_46">
      <g>
       <use xlink:href="#m2d2416a4b5" x="594.317172" y="196.265262" style="stroke: #000000; stroke-width: 0.8"/>
      </g>
     </g>
    </g>
    <g id="ytick_25">
     <g id="line2d_47">
      <g>
       <use xlink:href="#m2d2416a4b5" x="594.317172" y="170.805201" style="stroke: #000000; stroke-width: 0.8"/>
      </g>
     </g>
    </g>
    <g id="ytick_26">
     <g id="line2d_48">
      <g>
       <use xlink:href="#m2d2416a4b5" x="594.317172" y="145.345141" style="stroke: #000000; stroke-width: 0.8"/>
      </g>
     </g>
    </g>
    <g id="ytick_27">
     <g id="line2d_49">
      <g>
       <use xlink:href="#m2d2416a4b5" x="594.317172" y="119.88508" style="stroke: #000000; stroke-width: 0.8"/>
      </g>
     </g>
    </g>
    <g id="ytick_28">
     <g id="line2d_50">
      <g>
       <use xlink:href="#m2d2416a4b5" x="594.317172" y="94.425019" style="stroke: #000000; stroke-width: 0.8"/>
      </g>
     </g>
    </g>
    <g id="ytick_29">
     <g id="line2d_51">
      <g>
       <use xlink:href="#m2d2416a4b5" x="594.317172" y="68.964959" style="stroke: #000000; stroke-width: 0.8"/>
      </g>
     </g>
    </g>
    <g id="ytick_30">
     <g id="line2d_52">
      <g>
       <use xlink:href="#m2d2416a4b5" x="594.317172" y="43.504898" style="stroke: #000000; stroke-width: 0.8"/>
      </g>
     </g>
    </g>
   </g>
   <g id="patch_16">
    <path d="M 594.317172 272.645444 
L 594.317172 43.504898 
" style="fill: none; stroke: #000000; stroke-width: 0.8; stroke-linejoin: miter; stroke-linecap: square"/>
   </g>
   <g id="patch_17">
    <path d="M 860.99976 272.645444 
L 860.99976 43.504898 
" style="fill: none; stroke: #000000; stroke-width: 0.8; stroke-linejoin: miter; stroke-linecap: square"/>
   </g>
   <g id="patch_18">
    <path d="M 594.317172 272.645444 
L 860.99976 272.645444 
" style="fill: none; stroke: #000000; stroke-width: 0.8; stroke-linejoin: miter; stroke-linecap: square"/>
   </g>
   <g id="patch_19">
    <path d="M 594.317172 43.504898 
L 860.99976 43.504898 
" style="fill: none; stroke: #000000; stroke-width: 0.8; stroke-linejoin: miter; stroke-linecap: square"/>
   </g>
   <g id="text_40">
    <!-- Iterated SESPH with Splitting ($l=3$) -->
    <g transform="translate(634.986257 37.504898) scale(0.12 -0.12)">
     <defs>
      <path id="CMSS17-49" d="M 1094 4416 
L 557 4416 
L 557 0 
L 1094 0 
L 1094 4416 
z
" transform="scale(0.015625)"/>
      <path id="CMSS17-61" d="M 2406 1789 
C 2406 2399 1978 2816 1402 2816 
C 1120 2816 813 2764 461 2559 
L 499 2133 
C 659 2250 934 2438 1395 2438 
C 1722 2438 1920 2185 1920 1782 
L 1920 1536 
C 896 1504 256 1209 256 711 
C 256 452 416 -64 947 -64 
C 1043 -64 1562 -52 1933 224 
L 1933 -13 
L 2406 -13 
L 2406 1789 
z
M 1920 824 
C 1920 711 1920 559 1728 446 
C 1562 339 1350 326 1261 326 
C 941 326 723 503 723 723 
C 723 1165 1722 1209 1920 1216 
L 1920 824 
z
" transform="scale(0.015625)"/>
      <path id="CMSS17-64" d="M 2611 4416 
L 2138 4416 
L 2138 2495 
C 1939 2662 1613 2816 1254 2816 
C 672 2816 211 2179 211 1375 
C 211 572 666 -64 1235 -64 
C 1677 -64 1971 172 2125 307 
L 2125 -13 
L 2611 -13 
L 2611 4416 
z
M 2125 851 
C 2125 760 2125 663 1926 488 
C 1798 378 1645 326 1498 326 
C 1152 326 698 585 698 1369 
C 698 2185 1210 2425 1562 2425 
C 1798 2425 1990 2308 2125 2114 
L 2125 851 
z
" transform="scale(0.015625)"/>
      <path id="CMSS17-28" d="M 1613 4800 
C 1267 4447 474 3627 474 1603 
C 474 -428 1267 -1242 1613 -1600 
L 2003 -1600 
C 1216 -781 960 366 960 1596 
C 960 2820 1203 3973 2003 4800 
L 1613 4800 
z
" transform="scale(0.015625)"/>
      <path id="CMMI12-6c" d="M 1626 4255 
C 1632 4281 1645 4319 1645 4351 
C 1645 4416 1581 4416 1568 4416 
C 1562 4416 1331 4396 1216 4383 
C 1107 4377 1011 4364 896 4358 
C 742 4345 698 4339 698 4223 
C 698 4159 762 4159 826 4159 
C 1152 4159 1152 4102 1152 4039 
C 1152 4013 1152 4001 1120 3886 
L 326 731 
C 307 661 294 610 294 509 
C 294 191 531 -64 858 -64 
C 1069 -64 1210 76 1312 273 
C 1421 483 1510 884 1510 909 
C 1510 941 1485 967 1446 967 
C 1389 967 1382 935 1357 839 
C 1242 401 1126 64 870 64 
C 678 64 678 267 678 356 
C 678 382 678 515 723 693 
L 1626 4255 
z
" transform="scale(0.015625)"/>
      <path id="CMR17-3d" d="M 4115 2048 
C 4211 2048 4307 2048 4307 2156 
C 4307 2272 4198 2272 4090 2272 
L 512 2272 
C 403 2272 294 2272 294 2156 
C 294 2048 390 2048 486 2048 
L 4115 2048 
z
M 4090 927 
C 4198 927 4307 927 4307 1043 
C 4307 1152 4211 1152 4115 1152 
L 486 1152 
C 390 1152 294 1152 294 1043 
C 294 927 403 927 512 927 
L 4090 927 
z
" transform="scale(0.015625)"/>
      <path id="CMSS17-29" d="M 723 -1600 
C 1069 -1248 1862 -428 1862 1596 
C 1862 3627 1069 4440 723 4800 
L 333 4800 
C 1120 3979 1376 2833 1376 1603 
C 1376 379 1133 -774 333 -1600 
L 723 -1600 
z
" transform="scale(0.015625)"/>
     </defs>
     <use xlink:href="#CMSS17-49" transform="scale(0.996264)"/>
     <use xlink:href="#CMSS17-74" transform="translate(25.783926 0) scale(0.996264)"/>
     <use xlink:href="#CMSS17-65" transform="translate(59.615492 0) scale(0.996264)"/>
     <use xlink:href="#CMSS17-72" transform="translate(101.254314 0) scale(0.996264)"/>
     <use xlink:href="#CMSS17-61" transform="translate(133.164087 0) scale(0.996264)"/>
     <use xlink:href="#CMSS17-74" transform="translate(178.086007 0) scale(0.996264)"/>
     <use xlink:href="#CMSS17-65" transform="translate(211.917574 0) scale(0.996264)"/>
     <use xlink:href="#CMSS17-64" transform="translate(253.556396 0) scale(0.996264)"/>
     <use xlink:href="#CMSS17-53" transform="translate(332.990452 0) scale(0.996264)"/>
     <use xlink:href="#CMSS17-45" transform="translate(385.038968 0) scale(0.996264)"/>
     <use xlink:href="#CMSS17-53" transform="translate(440.930981 0) scale(0.996264)"/>
     <use xlink:href="#CMSS17-50" transform="translate(492.979498 0) scale(0.996264)"/>
     <use xlink:href="#CMSS17-48" transform="translate(552.715084 0) scale(0.996264)"/>
     <use xlink:href="#CMSS17-77" transform="translate(650.005716 0) scale(0.996264)"/>
     <use xlink:href="#CMSS17-69" transform="translate(713.825261 0) scale(0.996264)"/>
     <use xlink:href="#CMSS17-74" transform="translate(736.005984 0) scale(0.996264)"/>
     <use xlink:href="#CMSS17-68" transform="translate(769.837551 0) scale(0.996264)"/>
     <use xlink:href="#CMSS17-53" transform="translate(849.271607 0) scale(0.996264)"/>
     <use xlink:href="#CMSS17-70" transform="translate(901.320123 0) scale(0.996264)"/>
     <use xlink:href="#CMSS17-6c" transform="translate(949.525066 0) scale(0.996264)"/>
     <use xlink:href="#CMSS17-69" transform="translate(971.705789 0) scale(0.996264)"/>
     <use xlink:href="#CMSS17-74" transform="translate(993.886512 0) scale(0.996264)"/>
     <use xlink:href="#CMSS17-74" transform="translate(1027.718079 0) scale(0.996264)"/>
     <use xlink:href="#CMSS17-69" transform="translate(1061.549645 0) scale(0.996264)"/>
     <use xlink:href="#CMSS17-6e" transform="translate(1083.730368 0) scale(0.996264)"/>
     <use xlink:href="#CMSS17-67" transform="translate(1131.935312 0) scale(0.996264)"/>
     <use xlink:href="#CMSS17-28" transform="translate(1210.008048 0) scale(0.996264)"/>
     <use xlink:href="#CMMI12-6c" transform="translate(1246.441962 0) scale(0.996264)"/>
     <use xlink:href="#CMR17-3d" transform="translate(1305.364375 0) scale(0.996264)"/>
     <use xlink:href="#CMR17-33" transform="translate(1404.753172 0) scale(0.996264)"/>
     <use xlink:href="#CMSS17-29" transform="translate(1450.443649 0) scale(0.996264)"/>
    </g>
   </g>
  </g>
  <g id="text_41">
   <!-- $E_{kin, int}$ over Stiffness $k$ and Timestep Size $\lambda$ -->
   <g transform="translate(255.900896 16.837237) scale(0.2 -0.2)">
    <defs>
     <path id="CMSS17-76" d="M 2675 2752 
L 2176 2752 
L 1747 1555 
C 1613 1164 1421 627 1389 352 
L 1382 352 
C 1370 467 1318 633 1286 748 
C 1248 889 1197 1056 1158 1171 
L 595 2752 
L 83 2752 
L 1094 0 
L 1664 0 
L 2675 2752 
z
" transform="scale(0.015625)"/>
    </defs>
    <use xlink:href="#CMMI12-45" transform="scale(0.996264)"/>
    <use xlink:href="#CMMI12-6b" transform="translate(72.211218 -14.943915) scale(0.697382)"/>
    <use xlink:href="#CMMI12-69" transform="translate(110.066468 -14.943915) scale(0.697382)"/>
    <use xlink:href="#CMMI12-6e" transform="translate(133.361376 -14.943915) scale(0.697382)"/>
    <use xlink:href="#CMMI12-3b" transform="translate(174.122219 -14.943915) scale(0.697382)"/>
    <use xlink:href="#CMMI12-69" transform="translate(193.090151 -14.943915) scale(0.697382)"/>
    <use xlink:href="#CMMI12-6e" transform="translate(216.385059 -14.943915) scale(0.697382)"/>
    <use xlink:href="#CMMI12-74" transform="translate(257.145902 -14.943915) scale(0.697382)"/>
    <use xlink:href="#CMSS17-6f" transform="translate(313.531456 0) scale(0.996264)"/>
    <use xlink:href="#CMSS17-76" transform="translate(360.37508 0) scale(0.996264)"/>
    <use xlink:href="#CMSS17-65" transform="translate(403.375221 0) scale(0.996264)"/>
    <use xlink:href="#CMSS17-72" transform="translate(445.014043 0) scale(0.996264)"/>
    <use xlink:href="#CMSS17-53" transform="translate(508.152929 0) scale(0.996264)"/>
    <use xlink:href="#CMSS17-74" transform="translate(560.201445 0) scale(0.996264)"/>
    <use xlink:href="#CMSS17-69" transform="translate(594.033012 0) scale(0.996264)"/>
    <use xlink:href="#CMSS17-b" transform="translate(616.213735 0) scale(0.996264)"/>
    <use xlink:href="#CMSS17-6e" transform="translate(670.864705 0) scale(0.996264)"/>
    <use xlink:href="#CMSS17-65" transform="translate(719.069648 0) scale(0.996264)"/>
    <use xlink:href="#CMSS17-73" transform="translate(760.70847 0) scale(0.996264)"/>
    <use xlink:href="#CMSS17-73" transform="translate(796.622012 0) scale(0.996264)"/>
    <use xlink:href="#CMMI12-6b" transform="translate(863.764667 0) scale(0.996264)"/>
    <use xlink:href="#CMSS17-61" transform="translate(949.07298 0) scale(0.996264)"/>
    <use xlink:href="#CMSS17-6e" transform="translate(993.994901 0) scale(0.996264)"/>
    <use xlink:href="#CMSS17-64" transform="translate(1042.199844 0) scale(0.996264)"/>
    <use xlink:href="#CMSS17-54" transform="translate(1121.6339 0) scale(0.996264)"/>
    <use xlink:href="#CMSS17-69" transform="translate(1185.453354 0) scale(0.996264)"/>
    <use xlink:href="#CMSS17-6d" transform="translate(1207.634077 0) scale(0.996264)"/>
    <use xlink:href="#CMSS17-65" transform="translate(1281.863331 0) scale(0.996264)"/>
    <use xlink:href="#CMSS17-73" transform="translate(1323.502153 0) scale(0.996264)"/>
    <use xlink:href="#CMSS17-74" transform="translate(1359.415695 0) scale(0.996264)"/>
    <use xlink:href="#CMSS17-65" transform="translate(1393.247262 0) scale(0.996264)"/>
    <use xlink:href="#CMSS17-70" transform="translate(1434.886084 0) scale(0.996264)"/>
    <use xlink:href="#CMSS17-53" transform="translate(1514.32014 0) scale(0.996264)"/>
    <use xlink:href="#CMSS17-69" transform="translate(1566.368656 0) scale(0.996264)"/>
    <use xlink:href="#CMSS17-7a" transform="translate(1588.549379 0) scale(0.996264)"/>
    <use xlink:href="#CMSS17-65" transform="translate(1629.227251 0) scale(0.996264)"/>
    <use xlink:href="#CMMI12-15" transform="translate(1702.095186 0) scale(0.996264)"/>
   </g>
  </g>
 </g>
 <defs>
  <clipPath id="pd5b307c842">
   <rect x="35.585996" y="43.504898" width="266.682588" height="229.140546"/>
  </clipPath>
  <clipPath id="p98d9d6932b">
   <rect x="311.769064" y="43.504898" width="266.682588" height="229.140546"/>
  </clipPath>
  <clipPath id="pbee45c2e80">
   <rect x="311.769064" y="309.307932" width="266.682588" height="9.165622"/>
  </clipPath>
  <clipPath id="p42b55215f4">
   <rect x="594.317172" y="43.504898" width="266.682588" height="229.140546"/>
  </clipPath>
 </defs>
</svg>
